RecursiveTrio-TextSemiBold.ufo
<glyph name="C" format="1">
  <advance width="600"/>
  <unicode hex="0043"/>
  <outline>
    <contour>
      <point x="525" y="407" type="line"/>
      <point x="525" y="570" type="line" smooth="yes"/>
      <point x="525" y="605"/>
      <point x="513" y="637"/>
      <point x="480" y="670" type="curve" smooth="yes"/>
      <point x="445" y="705"/>
      <point x="408" y="703"/>
      <point x="387" y="675" type="curve"/>
      <point x="396" y="660"/>
      <point x="405" y="625"/>
      <point x="405" y="598" type="curve" smooth="yes"/>
      <point x="405" y="452" type="line" smooth="yes"/>
      <point x="405" y="446"/>
      <point x="406" y="442"/>
      <point x="412" y="437" type="curve" smooth="yes"/>
      <point x="432" y="417"/>
      <point x="464" y="407"/>
      <point x="505" y="407" type="curve" smooth="yes"/>
    </contour>
    <contour>
      <point x="383" y="720" type="curve" smooth="yes"/>
      <point x="210" y="720"/>
      <point x="72" y="495"/>
      <point x="72" y="256" type="curve" smooth="yes"/>
      <point x="72" y="241" type="line" smooth="yes"/>
      <point x="72" y="184"/>
      <point x="130" y="126"/>
      <point x="206" y="121" type="curve"/>
      <point x="196" y="151"/>
      <point x="189" y="195"/>
      <point x="189" y="234" type="curve"/>
      <point x="189" y="246" type="line"/>
      <point x="189" y="430"/>
      <point x="291" y="601"/>
      <point x="384" y="601" type="curve" smooth="yes"/>
      <point x="408" y="601"/>
      <point x="431" y="595"/>
      <point x="458" y="579" type="curve"/>
      <point x="499" y="600"/>
      <point x="508" y="642"/>
      <point x="480" y="670" type="curve"/>
      <point x="452" y="698"/>
      <point x="421" y="720"/>
    </contour>
    <contour>
      <point x="327" y="-20" type="curve" smooth="yes"/>
      <point x="451" y="-20"/>
      <point x="550" y="34"/>
      <point x="550" y="86" type="curve" smooth="yes"/>
      <point x="550" y="128"/>
      <point x="550" y="166"/>
      <point x="550" y="186" type="curve"/>
      <point x="529" y="186" type="line"/>
      <point x="480" y="124"/>
      <point x="417" y="100"/>
      <point x="327" y="100" type="curve" smooth="yes"/>
      <point x="217" y="100"/>
      <point x="175" y="156"/>
      <point x="175" y="291" type="curve"/>
      <point x="113" y="292"/>
      <point x="72" y="280"/>
      <point x="72" y="253" type="curve" smooth="yes"/>
      <point x="72" y="241" type="line" smooth="yes"/>
      <point x="72" y="96"/>
      <point x="161" y="-20"/>
    </contour>
  </outline>
</glyph>
<glyph name="D" format="1">
  <advance width="600"/>
  <unicode hex="0044"/>
  <outline>
    <contour>
      <point x="30" y="700" type="curve"/>
      <point x="30" y="678" type="line" smooth="yes"/>
      <point x="30" y="636"/>
      <point x="35" y="593"/>
      <point x="51" y="577" type="curve" smooth="yes"/>
      <point x="56" y="572"/>
      <point x="60" y="570"/>
      <point x="67" y="570" type="curve" smooth="yes"/>
      <point x="76" y="570"/>
      <point x="87" y="572"/>
      <point x="114" y="578" type="curve" smooth="yes"/>
      <point x="153" y="586"/>
      <point x="202" y="590"/>
      <point x="298" y="590" type="curve" smooth="yes"/>
      <point x="368" y="590"/>
      <point x="407" y="581"/>
      <point x="455" y="549" type="curve"/>
      <point x="478" y="571"/>
      <point x="478" y="631"/>
      <point x="457" y="651" type="curve" smooth="yes"/>
      <point x="405" y="704"/>
      <point x="361" y="720"/>
      <point x="280" y="720" type="curve" smooth="yes"/>
      <point x="190" y="720"/>
      <point x="114" y="713"/>
    </contour>
    <contour>
      <point x="218" y="34" type="curve"/>
      <point x="218" y="231"/>
      <point x="218" y="429"/>
      <point x="218" y="625" type="curve" smooth="yes"/>
      <point x="218" y="633"/>
      <point x="216" y="636"/>
      <point x="211" y="641" type="curve" smooth="yes"/>
      <point x="198" y="654"/>
      <point x="144" y="666"/>
      <point x="102" y="666" type="curve" smooth="yes"/>
      <point x="80" y="666" type="line"/>
      <point x="80" y="513"/>
      <point x="80" y="382"/>
      <point x="80" y="229" type="curve" smooth="yes"/>
      <point x="80" y="181"/>
      <point x="80" y="132"/>
      <point x="80" y="84" type="curve" smooth="yes"/>
      <point x="80" y="54"/>
      <point x="146" y="34"/>
    </contour>
    <contour>
      <point x="537" y="313" type="curve" smooth="yes"/>
      <point x="537" y="418" type="line" smooth="yes"/>
      <point x="537" y="500"/>
      <point x="530" y="578"/>
      <point x="457" y="651" type="curve" smooth="yes"/>
      <point x="418" y="690"/>
      <point x="361" y="693"/>
      <point x="321" y="658" type="curve"/>
      <point x="396" y="599"/>
      <point x="407" y="528"/>
      <point x="407" y="404" type="curve" smooth="yes"/>
      <point x="407" y="307" type="line" smooth="yes"/>
      <point x="407" y="189"/>
      <point x="343" y="124"/>
      <point x="242" y="124" type="curve" smooth="yes"/>
      <point x="176" y="124"/>
      <point x="152" y="129"/>
      <point x="94" y="152" type="curve"/>
      <point x="84" y="138"/>
      <point x="80" y="110"/>
      <point x="80" y="84" type="curve" smooth="yes"/>
      <point x="80" y="44"/>
      <point x="168" y="-10"/>
      <point x="247" y="-10" type="curve" smooth="yes"/>
      <point x="412" y="-10"/>
      <point x="537" y="103"/>
    </contour>
  </outline>
</glyph>
<glyph name="F" format="1">
  <advance width="600"/>
  <unicode hex="0046"/>
  <outline>
    <contour>
      <point x="218" y="-10" type="line"/>
      <point x="218" y="201"/>
      <point x="218" y="413"/>
      <point x="218" y="623" type="curve" smooth="yes"/>
      <point x="218" y="631"/>
      <point x="216" y="634"/>
      <point x="211" y="639" type="curve" smooth="yes"/>
      <point x="198" y="652"/>
      <point x="144" y="664"/>
      <point x="102" y="664" type="curve" smooth="yes"/>
      <point x="80" y="664" type="line"/>
      <point x="80" y="559"/>
      <point x="80" y="454"/>
      <point x="80" y="349" type="curve" smooth="yes"/>
      <point x="80" y="246"/>
      <point x="80" y="141"/>
      <point x="80" y="39" type="curve" smooth="yes"/>
      <point x="80" y="31"/>
      <point x="82" y="28"/>
      <point x="87" y="23" type="curve" smooth="yes"/>
      <point x="110" y="0"/>
      <point x="154" y="-10"/>
      <point x="196" y="-10" type="curve" smooth="yes"/>
    </contour>
    <contour>
      <point x="30" y="700" type="curve"/>
      <point x="30" y="678" type="line" smooth="yes"/>
      <point x="30" y="636"/>
      <point x="35" y="593"/>
      <point x="51" y="577" type="curve" smooth="yes"/>
      <point x="56" y="572"/>
      <point x="59" y="570"/>
      <point x="67" y="570" type="curve"/>
      <point x="119" y="570"/>
      <point x="180" y="570"/>
      <point x="233" y="570" type="curve" smooth="yes"/>
      <point x="315" y="570"/>
      <point x="464" y="570"/>
      <point x="546" y="570" type="curve"/>
      <point x="546" y="592" type="line" smooth="yes"/>
      <point x="546" y="615"/>
      <point x="526" y="664"/>
      <point x="497" y="693" type="curve" smooth="yes"/>
      <point x="492" y="698"/>
      <point x="489" y="700"/>
      <point x="481" y="700" type="curve" smooth="yes"/>
      <point x="351" y="700"/>
      <point x="160" y="700"/>
    </contour>
    <contour>
      <point x="116" y="340" type="curve"/>
      <point x="116" y="318" type="line" smooth="yes"/>
      <point x="116" y="276"/>
      <point x="126" y="240"/>
      <point x="149" y="217" type="curve" smooth="yes"/>
      <point x="154" y="212"/>
      <point x="157" y="210"/>
      <point x="165" y="210" type="curve"/>
      <point x="212" y="210"/>
      <point x="178" y="210"/>
      <point x="225" y="210" type="curve" smooth="yes"/>
      <point x="304" y="210"/>
      <point x="419" y="210"/>
      <point x="498" y="210" type="curve"/>
      <point x="498" y="232" type="line" smooth="yes"/>
      <point x="498" y="255"/>
      <point x="478" y="304"/>
      <point x="449" y="333" type="curve" smooth="yes"/>
      <point x="444" y="338"/>
      <point x="441" y="340"/>
      <point x="433" y="340" type="curve" smooth="yes"/>
      <point x="312" y="340"/>
      <point x="238" y="340"/>
    </contour>
  </outline>
</glyph>
<glyph name="G" format="1">
  <advance width="600"/>
  <unicode hex="0047"/>
  <outline>
    <contour>
      <point x="525" y="455" type="line"/>
      <point x="525" y="568" type="line" smooth="yes"/>
      <point x="525" y="603"/>
      <point x="513" y="634"/>
      <point x="479" y="669" type="curve" smooth="yes"/>
      <point x="442" y="706"/>
      <point x="403" y="705"/>
      <point x="378" y="676" type="curve"/>
      <point x="386" y="663"/>
      <point x="395" y="625"/>
      <point x="395" y="598" type="curve" smooth="yes"/>
      <point x="395" y="504" type="line" smooth="yes"/>
      <point x="395" y="497"/>
      <point x="396" y="494"/>
      <point x="402" y="488" type="curve" smooth="yes"/>
      <point x="424" y="466"/>
      <point x="459" y="455"/>
      <point x="503" y="455" type="curve" smooth="yes"/>
    </contour>
    <contour>
      <point x="377" y="720" type="curve" smooth="yes"/>
      <point x="205" y="720"/>
      <point x="71" y="591"/>
      <point x="71" y="339" type="curve" smooth="yes"/>
      <point x="71" y="243" type="line" smooth="yes"/>
      <point x="71" y="184"/>
      <point x="133" y="127"/>
      <point x="215" y="124" type="curve"/>
      <point x="206" y="151"/>
      <point x="198" y="194"/>
      <point x="198" y="236" type="curve" smooth="yes"/>
      <point x="198" y="333" type="line" smooth="yes"/>
      <point x="198" y="519"/>
      <point x="292" y="599"/>
      <point x="379" y="599" type="curve" smooth="yes"/>
      <point x="404" y="599"/>
      <point x="427" y="595"/>
      <point x="454" y="580" type="curve"/>
      <point x="499" y="601"/>
      <point x="509" y="639"/>
      <point x="479" y="669" type="curve"/>
      <point x="450" y="697"/>
      <point x="419" y="720"/>
    </contour>
    <contour>
      <point x="328" y="-20" type="curve" smooth="yes"/>
      <point x="445" y="-20"/>
      <point x="541" y="47"/>
      <point x="541" y="155" type="curve" smooth="yes"/>
      <point x="541" y="201"/>
      <point x="517" y="246"/>
      <point x="495" y="268" type="curve" smooth="yes"/>
      <point x="486" y="277"/>
      <point x="467" y="285"/>
      <point x="452" y="285" type="curve"/>
      <point x="456" y="272"/>
      <point x="458" y="260"/>
      <point x="458" y="242" type="curve" smooth="yes"/>
      <point x="458" y="144"/>
      <point x="403" y="110"/>
      <point x="328" y="110" type="curve" smooth="yes"/>
      <point x="223" y="110"/>
      <point x="184" y="157"/>
      <point x="184" y="298" type="curve"/>
      <point x="117" y="299"/>
      <point x="71" y="347"/>
      <point x="71" y="317" type="curve" smooth="yes"/>
      <point x="71" y="243" type="line" smooth="yes"/>
      <point x="71" y="97"/>
      <point x="158" y="-20"/>
    </contour>
    <contour>
      <point x="318" y="344" type="curve"/>
      <point x="318" y="322" type="line" smooth="yes"/>
      <point x="318" y="280"/>
      <point x="328" y="260"/>
      <point x="351" y="237" type="curve" smooth="yes"/>
      <point x="356" y="232"/>
      <point x="359" y="230"/>
      <point x="367" y="230" type="curve"/>
      <point x="414" y="230"/>
      <point x="370" y="230"/>
      <point x="417" y="230" type="curve" smooth="yes"/>
      <point x="469" y="230"/>
      <point x="526" y="230"/>
      <point x="578" y="230" type="curve"/>
      <point x="578" y="252" type="line" smooth="yes"/>
      <point x="578" y="275"/>
      <point x="566" y="308"/>
      <point x="537" y="337" type="curve" smooth="yes"/>
      <point x="532" y="342"/>
      <point x="529" y="344"/>
      <point x="521" y="344" type="curve" smooth="yes"/>
      <point x="436" y="344"/>
      <point x="404" y="344"/>
    </contour>
  </outline>
</glyph>
<glyph name="H" format="1">
  <advance width="600"/>
  <unicode hex="0048"/>
  <outline>
    <contour>
      <point x="210" y="-10" type="line"/>
      <point x="210" y="196"/>
      <point x="210" y="466"/>
      <point x="210" y="672" type="curve" smooth="yes"/>
      <point x="210" y="679"/>
      <point x="208" y="682"/>
      <point x="202" y="687" type="curve" smooth="yes"/>
      <point x="190" y="699"/>
      <point x="141" y="710"/>
      <point x="103" y="710" type="curve" smooth="yes"/>
      <point x="83" y="710" type="line"/>
      <point x="83" y="604"/>
      <point x="83" y="434"/>
      <point x="83" y="329" type="curve" smooth="yes"/>
      <point x="83" y="232"/>
      <point x="83" y="132"/>
      <point x="83" y="35" type="curve" smooth="yes"/>
      <point x="83" y="28"/>
      <point x="85" y="25"/>
      <point x="90" y="20" type="curve" smooth="yes"/>
      <point x="110" y="-1"/>
      <point x="151" y="-10"/>
      <point x="189" y="-10" type="curve" smooth="yes"/>
    </contour>
    <contour>
      <point x="525" y="-10" type="line"/>
      <point x="525" y="196"/>
      <point x="525" y="466"/>
      <point x="525" y="672" type="curve" smooth="yes"/>
      <point x="525" y="679"/>
      <point x="523" y="682"/>
      <point x="517" y="687" type="curve" smooth="yes"/>
      <point x="505" y="699"/>
      <point x="456" y="710"/>
      <point x="418" y="710" type="curve" smooth="yes"/>
      <point x="398" y="710" type="line"/>
      <point x="398" y="604"/>
      <point x="398" y="434"/>
      <point x="398" y="329" type="curve" smooth="yes"/>
      <point x="398" y="232"/>
      <point x="398" y="132"/>
      <point x="398" y="35" type="curve" smooth="yes"/>
      <point x="398" y="28"/>
      <point x="400" y="25"/>
      <point x="405" y="20" type="curve" smooth="yes"/>
      <point x="425" y="-1"/>
      <point x="466" y="-10"/>
      <point x="504" y="-10" type="curve" smooth="yes"/>
    </contour>
    <contour>
      <point x="33" y="370" type="curve"/>
      <point x="33" y="350" type="line" smooth="yes"/>
      <point x="33" y="311"/>
      <point x="42" y="278"/>
      <point x="62" y="257" type="curve" smooth="yes"/>
      <point x="68" y="252"/>
      <point x="71" y="250"/>
      <point x="78" y="250" type="curve"/>
      <point x="133" y="250"/>
      <point x="182" y="250"/>
      <point x="237" y="250" type="curve"/>
      <point x="316" y="250"/>
      <point x="415" y="250"/>
      <point x="494" y="250" type="curve"/>
      <point x="494" y="271" type="line" smooth="yes"/>
      <point x="494" y="293"/>
      <point x="476" y="337"/>
      <point x="450" y="363" type="curve" smooth="yes"/>
      <point x="445" y="368"/>
      <point x="442" y="370"/>
      <point x="435" y="370" type="curve" smooth="yes"/>
      <point x="304" y="370"/>
      <point x="163" y="370"/>
    </contour>
  </outline>
</glyph>
<glyph name="I" format="1">
  <advance width="600"/>
  <unicode hex="0049"/>
  <outline>
    <contour>
      <point x="54" y="700" type="curve"/>
      <point x="54" y="678" type="line" smooth="yes"/>
      <point x="54" y="636"/>
      <point x="64" y="600"/>
      <point x="87" y="577" type="curve" smooth="yes"/>
      <point x="92" y="572"/>
      <point x="95" y="570"/>
      <point x="103" y="570" type="curve"/>
      <point x="154" y="570"/>
      <point x="182" y="570"/>
      <point x="233" y="570" type="curve"/>
      <point x="315" y="570"/>
      <point x="464" y="570"/>
      <point x="546" y="570" type="curve"/>
      <point x="546" y="592" type="line" smooth="yes"/>
      <point x="546" y="615"/>
      <point x="526" y="664"/>
      <point x="497" y="693" type="curve" smooth="yes"/>
      <point x="492" y="698"/>
      <point x="489" y="700"/>
      <point x="481" y="700" type="curve" smooth="yes"/>
      <point x="353" y="700"/>
      <point x="183" y="700"/>
    </contour>
    <contour>
      <point x="365" y="36" type="line"/>
      <point x="365" y="245"/>
      <point x="365" y="414"/>
      <point x="365" y="623" type="curve" smooth="yes"/>
      <point x="365" y="631"/>
      <point x="363" y="634"/>
      <point x="358" y="639" type="curve" smooth="yes"/>
      <point x="345" y="652"/>
      <point x="291" y="664"/>
      <point x="249" y="664" type="curve" smooth="yes"/>
      <point x="227" y="664" type="line"/>
      <point x="227" y="559"/>
      <point x="227" y="454"/>
      <point x="227" y="349" type="curve" smooth="yes"/>
      <point x="227" y="248"/>
      <point x="227" y="185"/>
      <point x="227" y="85" type="curve" smooth="yes"/>
      <point x="227" y="77"/>
      <point x="229" y="74"/>
      <point x="234" y="69" type="curve" smooth="yes"/>
      <point x="257" y="46"/>
      <point x="301" y="36"/>
      <point x="343" y="36" type="curve" smooth="yes"/>
    </contour>
    <contour>
      <point x="54" y="130" type="curve"/>
      <point x="54" y="108" type="line" smooth="yes"/>
      <point x="54" y="66"/>
      <point x="64" y="30"/>
      <point x="87" y="7" type="curve" smooth="yes"/>
      <point x="92" y="2"/>
      <point x="95" y="0"/>
      <point x="103" y="0" type="curve"/>
      <point x="154" y="0"/>
      <point x="182" y="0"/>
      <point x="233" y="0" type="curve"/>
      <point x="315" y="0"/>
      <point x="464" y="0"/>
      <point x="546" y="0" type="curve"/>
      <point x="546" y="22" type="line" smooth="yes"/>
      <point x="546" y="45"/>
      <point x="526" y="94"/>
      <point x="497" y="123" type="curve" smooth="yes"/>
      <point x="492" y="128"/>
      <point x="489" y="130"/>
      <point x="481" y="130" type="curve" smooth="yes"/>
      <point x="353" y="130"/>
      <point x="183" y="130"/>
    </contour>
  </outline>
</glyph>
<glyph name="L" format="1">
  <advance width="600"/>
  <unicode hex="004C"/>
  <outline>
    <contour>
      <point x="203" y="65" type="line"/>
      <point x="203" y="269"/>
      <point x="203" y="468"/>
      <point x="203" y="672" type="curve" smooth="yes"/>
      <point x="203" y="679"/>
      <point x="201" y="682"/>
      <point x="195" y="687" type="curve" smooth="yes"/>
      <point x="183" y="699"/>
      <point x="134" y="710"/>
      <point x="96" y="710" type="curve" smooth="yes"/>
      <point x="76" y="710" type="line"/>
      <point x="76" y="604"/>
      <point x="76" y="434"/>
      <point x="76" y="329" type="curve" smooth="yes"/>
      <point x="76" y="234"/>
      <point x="76" y="204"/>
      <point x="76" y="110" type="curve" smooth="yes"/>
      <point x="76" y="103"/>
      <point x="78" y="100"/>
      <point x="83" y="95" type="curve" smooth="yes"/>
      <point x="103" y="74"/>
      <point x="144" y="65"/>
      <point x="182" y="65" type="curve" smooth="yes"/>
    </contour>
    <contour>
      <point x="76" y="120" type="curve"/>
      <point x="76" y="100" type="line" smooth="yes"/>
      <point x="76" y="61"/>
      <point x="85" y="28"/>
      <point x="105" y="7" type="curve" smooth="yes"/>
      <point x="111" y="2"/>
      <point x="114" y="0"/>
      <point x="121" y="0" type="curve"/>
      <point x="170" y="0"/>
      <point x="146" y="0"/>
      <point x="195" y="0" type="curve" smooth="yes"/>
      <point x="280" y="0"/>
      <point x="459" y="0"/>
      <point x="544" y="0" type="curve"/>
      <point x="544" y="21" type="line" smooth="yes"/>
      <point x="544" y="43"/>
      <point x="526" y="87"/>
      <point x="500" y="113" type="curve" smooth="yes"/>
      <point x="495" y="118"/>
      <point x="492" y="120"/>
      <point x="485" y="120" type="curve" smooth="yes"/>
      <point x="354" y="120"/>
      <point x="206" y="120"/>
    </contour>
  </outline>
</glyph>
<glyph name="P" format="1">
  <advance width="600"/>
  <unicode hex="0050"/>
  <outline>
    <contour>
      <point x="30" y="700" type="curve"/>
      <point x="30" y="678" type="line" smooth="yes"/>
      <point x="30" y="636"/>
      <point x="35" y="593"/>
      <point x="51" y="577" type="curve" smooth="yes"/>
      <point x="56" y="572"/>
      <point x="60" y="570"/>
      <point x="67" y="570" type="curve" smooth="yes"/>
      <point x="76" y="570"/>
      <point x="87" y="572"/>
      <point x="114" y="578" type="curve" smooth="yes"/>
      <point x="157" y="587"/>
      <point x="211" y="590"/>
      <point x="318" y="590" type="curve" smooth="yes"/>
      <point x="387" y="590"/>
      <point x="426" y="581"/>
      <point x="472" y="551" type="curve"/>
      <point x="496" y="575"/>
      <point x="495" y="631"/>
      <point x="475" y="651" type="curve" smooth="yes"/>
      <point x="423" y="703"/>
      <point x="380" y="720"/>
      <point x="300" y="720" type="curve" smooth="yes"/>
      <point x="203" y="720"/>
      <point x="121" y="714"/>
    </contour>
    <contour>
      <point x="218" y="-10" type="line"/>
      <point x="218" y="202"/>
      <point x="218" y="413"/>
      <point x="218" y="625" type="curve" smooth="yes"/>
      <point x="218" y="633"/>
      <point x="216" y="636"/>
      <point x="211" y="641" type="curve" smooth="yes"/>
      <point x="198" y="654"/>
      <point x="144" y="666"/>
      <point x="102" y="666" type="curve" smooth="yes"/>
      <point x="80" y="666" type="line"/>
      <point x="80" y="513"/>
      <point x="80" y="382"/>
      <point x="80" y="229" type="curve" smooth="yes"/>
      <point x="80" y="166"/>
      <point x="80" y="101"/>
      <point x="80" y="39" type="curve" smooth="yes"/>
      <point x="80" y="31"/>
      <point x="82" y="28"/>
      <point x="87" y="23" type="curve" smooth="yes"/>
      <point x="110" y="0"/>
      <point x="154" y="-10"/>
      <point x="196" y="-10" type="curve" smooth="yes"/>
    </contour>
    <contour>
      <point x="537" y="466" type="curve" smooth="yes"/>
      <point x="537" y="520" type="line" smooth="yes"/>
      <point x="537" y="566"/>
      <point x="521" y="607"/>
      <point x="475" y="651" type="curve" smooth="yes"/>
      <point x="435" y="689"/>
      <point x="379" y="691"/>
      <point x="340" y="658" type="curve"/>
      <point x="389" y="619"/>
      <point x="407" y="580"/>
      <point x="407" y="506" type="curve" smooth="yes"/>
      <point x="407" y="460" type="line" smooth="yes"/>
      <point x="407" y="349"/>
      <point x="350" y="287"/>
      <point x="269" y="287" type="curve" smooth="yes"/>
      <point x="239" y="287"/>
      <point x="226" y="289"/>
      <point x="201" y="295" type="curve"/>
      <point x="196" y="287"/>
      <point x="191" y="274"/>
      <point x="191" y="261" type="curve" smooth="yes"/>
      <point x="191" y="216"/>
      <point x="245" y="153"/>
      <point x="299" y="153" type="curve" smooth="yes"/>
      <point x="425" y="153"/>
      <point x="537" y="262"/>
    </contour>
  </outline>
</glyph>
<glyph name="S" format="1">
  <advance width="600"/>
  <unicode hex="0053"/>
  <outline>
    <contour>
      <point x="388" y="332" type="curve" smooth="yes"/>
      <point x="296" y="365" type="line" smooth="yes"/>
      <point x="220" y="392"/>
      <point x="201" y="414"/>
      <point x="201" y="451" type="curve" smooth="yes"/>
      <point x="201" y="471"/>
      <point x="204" y="503"/>
      <point x="214" y="534" type="curve"/>
      <point x="137" y="532"/>
      <point x="74" y="506"/>
      <point x="74" y="432" type="curve" smooth="yes"/>
      <point x="74" y="372"/>
      <point x="105" y="324"/>
      <point x="256" y="268" type="curve" smooth="yes"/>
      <point x="347" y="234" type="line" smooth="yes"/>
      <point x="456" y="194"/>
      <point x="459" y="161"/>
      <point x="459" y="98" type="curve"/>
      <point x="494" y="98"/>
      <point x="545" y="139"/>
      <point x="545" y="177" type="curve"/>
      <point x="545" y="227"/>
      <point x="513" y="287"/>
    </contour>
    <contour>
      <point x="300" y="-20" type="curve" smooth="yes"/>
      <point x="452" y="-20"/>
      <point x="545" y="40"/>
      <point x="545" y="119" type="curve" smooth="yes"/>
      <point x="545" y="177" type="line" smooth="yes"/>
      <point x="545" y="192"/>
      <point x="512" y="201"/>
      <point x="473" y="201" type="curve"/>
      <point x="454" y="137"/>
      <point x="398" y="110"/>
      <point x="300" y="110" type="curve" smooth="yes"/>
      <point x="202" y="110"/>
      <point x="132" y="139"/>
      <point x="78" y="193" type="curve"/>
      <point x="55" y="193" type="line"/>
      <point x="55" y="171"/>
      <point x="55" y="130"/>
      <point x="55" y="85" type="curve" smooth="yes"/>
      <point x="55" y="32"/>
      <point x="166" y="-20"/>
    </contour>
    <contour>
      <point x="380" y="720" type="curve" smooth="yes"/>
      <point x="235" y="720"/>
      <point x="74" y="584"/>
      <point x="74" y="480" type="curve" smooth="yes"/>
      <point x="74" y="432" type="line" smooth="yes"/>
      <point x="74" y="405"/>
      <point x="136" y="375"/>
      <point x="208" y="373" type="curve"/>
      <point x="201" y="399"/>
      <point x="201" y="427"/>
      <point x="201" y="451" type="curve" smooth="yes"/>
      <point x="201" y="521"/>
      <point x="300" y="601"/>
      <point x="382" y="601" type="curve" smooth="yes"/>
      <point x="403" y="601"/>
      <point x="425" y="600"/>
      <point x="452" y="586" type="curve"/>
      <point x="503" y="610"/>
      <point x="512" y="645"/>
      <point x="481" y="676" type="curve"/>
      <point x="454" y="703"/>
      <point x="419" y="720"/>
    </contour>
    <contour>
      <point x="520" y="450" type="line"/>
      <point x="520" y="584" type="line" smooth="yes"/>
      <point x="520" y="617"/>
      <point x="511" y="646"/>
      <point x="481" y="676" type="curve" smooth="yes"/>
      <point x="448" y="710"/>
      <point x="402" y="711"/>
      <point x="375" y="680" type="curve"/>
      <point x="384" y="667"/>
      <point x="390" y="631"/>
      <point x="390" y="604" type="curve" smooth="yes"/>
      <point x="390" y="499" type="line" smooth="yes"/>
      <point x="390" y="492"/>
      <point x="391" y="489"/>
      <point x="397" y="483" type="curve" smooth="yes"/>
      <point x="419" y="461"/>
      <point x="454" y="450"/>
      <point x="498" y="450" type="curve" smooth="yes"/>
    </contour>
  </outline>
</glyph>
<glyph name="a" format="1">
  <advance width="600"/>
  <unicode hex="0061"/>
  <outline>
    <contour>
      <point x="215" y="561" type="curve" smooth="yes"/>
      <point x="153" y="561"/>
      <point x="117" y="552"/>
      <point x="103" y="537" type="curve" smooth="yes"/>
      <point x="93" y="528"/>
      <point x="90" y="518"/>
      <point x="90" y="505" type="curve"/>
      <point x="90" y="417" type="line"/>
      <point x="108" y="417" type="line"/>
      <point x="158" y="430"/>
      <point x="228" y="439"/>
      <point x="275" y="439" type="curve" smooth="yes"/>
      <point x="338" y="439"/>
      <point x="383" y="433"/>
      <point x="455" y="422" type="curve"/>
      <point x="470" y="449"/>
      <point x="463" y="479"/>
      <point x="419" y="522" type="curve"/>
      <point x="391" y="549"/>
      <point x="335" y="561"/>
    </contour>
    <contour>
      <point x="365" y="517" type="curve"/>
      <point x="373" y="424"/>
      <point x="367" y="356"/>
      <point x="359" y="298" type="curve" smooth="yes"/>
      <point x="359" y="230"/>
      <point x="359" y="201"/>
      <point x="359" y="146" type="curve" smooth="yes"/>
      <point x="359" y="96"/>
      <point x="368" y="75"/>
      <point x="397" y="46" type="curve"/>
      <point x="423" y="20"/>
      <point x="505" y="28"/>
      <point x="508" y="58" type="curve"/>
      <point x="498" y="70"/>
      <point x="493" y="89"/>
      <point x="493" y="117" type="curve" smooth="yes"/>
      <point x="493" y="206"/>
      <point x="493" y="264"/>
      <point x="493" y="380" type="curve" smooth="yes"/>
      <point x="493" y="425"/>
      <point x="468" y="471"/>
      <point x="419" y="522" type="curve"/>
      <point x="405" y="537"/>
      <point x="377" y="534"/>
    </contour>
    <contour>
      <point x="406" y="277" type="curve" smooth="yes"/>
      <point x="383" y="300"/>
      <point x="322" y="313"/>
      <point x="227" y="313" type="curve" smooth="yes"/>
      <point x="178" y="313"/>
      <point x="152" y="302"/>
      <point x="118" y="269" type="curve" smooth="yes"/>
      <point x="97" y="247"/>
      <point x="89" y="210"/>
      <point x="105" y="197" type="curve"/>
      <point x="134" y="223"/>
      <point x="169" y="227"/>
      <point x="210" y="227" type="curve" smooth="yes"/>
      <point x="273" y="227"/>
      <point x="376" y="226"/>
      <point x="429" y="224" type="curve"/>
      <point x="427" y="244"/>
      <point x="418" y="265"/>
    </contour>
    <contour>
      <point x="189" y="145" type="curve" smooth="yes"/>
      <point x="189" y="194" type="line" smooth="yes"/>
      <point x="189" y="254"/>
      <point x="193" y="270"/>
      <point x="212" y="292" type="curve"/>
      <point x="177" y="303"/>
      <point x="142" y="292"/>
      <point x="118" y="269" type="curve" smooth="yes"/>
      <point x="72" y="222"/>
      <point x="59" y="199"/>
      <point x="59" y="162" type="curve" smooth="yes"/>
      <point x="59" y="124" type="line" smooth="yes"/>
      <point x="59" y="30"/>
      <point x="106" y="-19"/>
      <point x="192" y="-19" type="curve" smooth="yes"/>
      <point x="270" y="-19"/>
      <point x="330" y="24"/>
      <point x="376" y="102" type="curve" smooth="yes"/>
      <point x="386" y="118"/>
      <point x="390" y="133"/>
      <point x="390" y="158" type="curve"/>
      <point x="339" y="118"/>
      <point x="300" y="103"/>
      <point x="248" y="103" type="curve" smooth="yes"/>
      <point x="226" y="103" type="line" smooth="yes"/>
      <point x="198" y="103"/>
      <point x="189" y="113"/>
    </contour>
    <contour>
      <point x="507" y="-9" type="curve" smooth="yes"/>
      <point x="550" y="-9"/>
      <point x="569" y="8"/>
      <point x="569" y="48" type="curve"/>
      <point x="569" y="131" type="line"/>
      <point x="547" y="131" type="line"/>
      <point x="533" y="130"/>
      <point x="525" y="129"/>
      <point x="507" y="129" type="curve" smooth="yes"/>
      <point x="480" y="129"/>
      <point x="448" y="129"/>
      <point x="407" y="131" type="curve"/>
      <point x="389" y="113"/>
      <point x="380" y="63"/>
      <point x="397" y="46" type="curve"/>
      <point x="429" y="15"/>
      <point x="469" y="-9"/>
    </contour>
  </outline>
</glyph>
<glyph name="b" format="1">
  <advance width="600"/>
  <unicode hex="0062"/>
  <outline>
    <contour>
      <point x="212" y="-10" type="line"/>
      <point x="212" y="234"/>
      <point x="212" y="515"/>
      <point x="212" y="719" type="curve" smooth="yes"/>
      <point x="212" y="727"/>
      <point x="210" y="730"/>
      <point x="205" y="735" type="curve" smooth="yes"/>
      <point x="192" y="748"/>
      <point x="138" y="760"/>
      <point x="96" y="760" type="curve" smooth="yes"/>
      <point x="74" y="760" type="line"/>
      <point x="74" y="620"/>
      <point x="74" y="527"/>
      <point x="74" y="387" type="curve" smooth="yes"/>
      <point x="74" y="285"/>
      <point x="74" y="141"/>
      <point x="74" y="39" type="curve" smooth="yes"/>
      <point x="74" y="31"/>
      <point x="76" y="28"/>
      <point x="81" y="23" type="curve" smooth="yes"/>
      <point x="104" y="0"/>
      <point x="148" y="-10"/>
      <point x="190" y="-10" type="curve" smooth="yes"/>
    </contour>
    <contour>
      <point x="397" y="552" type="curve" smooth="yes"/>
      <point x="334" y="552"/>
      <point x="250" y="490"/>
      <point x="196" y="424" type="curve" smooth="yes"/>
      <point x="170" y="392"/>
      <point x="164" y="377"/>
      <point x="165" y="320" type="curve"/>
      <point x="254" y="394"/>
      <point x="315" y="414"/>
      <point x="389" y="414" type="curve" smooth="yes"/>
      <point x="440" y="414"/>
      <point x="469" y="378"/>
      <point x="501" y="325" type="curve"/>
      <point x="534" y="326"/>
      <point x="553" y="351"/>
      <point x="553" y="371" type="curve" smooth="yes"/>
      <point x="553" y="463"/>
      <point x="468" y="552"/>
    </contour>
    <contour>
      <point x="341" y="-20" type="curve" smooth="yes"/>
      <point x="477" y="-20"/>
      <point x="553" y="138"/>
      <point x="553" y="331" type="curve" smooth="yes"/>
      <point x="553" y="371" type="line" smooth="yes"/>
      <point x="553" y="416"/>
      <point x="514" y="482"/>
      <point x="459" y="482" type="curve"/>
      <point x="418" y="482"/>
      <point x="387" y="471"/>
      <point x="386" y="442" type="curve"/>
      <point x="402" y="422"/>
      <point x="411" y="400"/>
      <point x="411" y="353" type="curve" smooth="yes"/>
      <point x="411" y="331" type="line" smooth="yes"/>
      <point x="411" y="192"/>
      <point x="354" y="106"/>
      <point x="281" y="106" type="curve" smooth="yes"/>
      <point x="247" y="106"/>
      <point x="222" y="112"/>
      <point x="197" y="124" type="curve"/>
      <point x="193" y="120"/>
      <point x="191" y="117"/>
      <point x="191" y="109" type="curve"/>
      <point x="191" y="66"/>
      <point x="264" y="-20"/>
    </contour>
  </outline>
</glyph>
<glyph name="c" format="1">
  <advance width="600"/>
  <unicode hex="0063"/>
  <outline>
    <contour>
      <point x="358" y="560" type="curve" smooth="yes"/>
      <point x="186" y="560"/>
      <point x="58" y="426"/>
      <point x="58" y="255" type="curve" smooth="yes"/>
      <point x="58" y="225" type="line" smooth="yes"/>
      <point x="58" y="162"/>
      <point x="77" y="105"/>
      <point x="127" y="55" type="curve" smooth="yes"/>
      <point x="155" y="28"/>
      <point x="217" y="10"/>
      <point x="245" y="38" type="curve"/>
      <point x="222" y="72"/>
      <point x="188" y="147"/>
      <point x="188" y="212" type="curve" smooth="yes"/>
      <point x="188" y="247" type="line" smooth="yes"/>
      <point x="188" y="341"/>
      <point x="248" y="430"/>
      <point x="351" y="430" type="curve" smooth="yes"/>
      <point x="391" y="430"/>
      <point x="439" y="424"/>
      <point x="474" y="418" type="curve"/>
      <point x="502" y="430"/>
      <point x="520" y="462"/>
      <point x="479" y="502" type="curve"/>
      <point x="432" y="550"/>
      <point x="412" y="560"/>
    </contour>
    <contour>
      <point x="120" y="158" type="curve"/>
      <point x="93" y="131"/>
      <point x="98" y="84"/>
      <point x="127" y="55" type="curve" smooth="yes"/>
      <point x="175" y="7"/>
      <point x="214" y="-20"/>
      <point x="287" y="-20" type="curve" smooth="yes"/>
      <point x="331" y="-20" type="line" smooth="yes"/>
      <point x="425" y="-20"/>
      <point x="481" y="2"/>
      <point x="507" y="28" type="curve" smooth="yes"/>
      <point x="518" y="39"/>
      <point x="523" y="51"/>
      <point x="523" y="69" type="curve" smooth="yes"/>
      <point x="523" y="102"/>
      <point x="523" y="132"/>
      <point x="523" y="160" type="curve"/>
      <point x="501" y="160" type="line"/>
      <point x="465" y="124"/>
      <point x="399" y="110"/>
      <point x="300" y="110" type="curve" smooth="yes"/>
      <point x="226" y="110"/>
      <point x="167" y="123"/>
    </contour>
    <contour>
      <point x="522" y="298" type="line"/>
      <point x="522" y="416" type="line" smooth="yes"/>
      <point x="522" y="448"/>
      <point x="510" y="471"/>
      <point x="479" y="502" type="curve" smooth="yes"/>
      <point x="446" y="536"/>
      <point x="401" y="536"/>
      <point x="373" y="507" type="curve"/>
      <point x="383" y="495"/>
      <point x="392" y="455"/>
      <point x="392" y="426" type="curve" smooth="yes"/>
      <point x="392" y="347" type="line" smooth="yes"/>
      <point x="392" y="340"/>
      <point x="393" y="337"/>
      <point x="399" y="331" type="curve" smooth="yes"/>
      <point x="421" y="309"/>
      <point x="456" y="298"/>
      <point x="500" y="298" type="curve" smooth="yes"/>
    </contour>
  </outline>
</glyph>
<glyph name="d" format="1">
  <advance width="600"/>
  <unicode hex="0064"/>
  <outline>
    <contour>
      <point x="262" y="560" type="curve" smooth="yes"/>
      <point x="153" y="560"/>
      <point x="49" y="456"/>
      <point x="49" y="231" type="curve" smooth="yes"/>
      <point x="49" y="185" type="line" smooth="yes"/>
      <point x="49" y="137"/>
      <point x="91" y="67"/>
      <point x="165" y="67" type="curve"/>
      <point x="191" y="67"/>
      <point x="211" y="76"/>
      <point x="211" y="100" type="curve"/>
      <point x="196" y="120"/>
      <point x="191" y="154"/>
      <point x="191" y="219" type="curve" smooth="yes"/>
      <point x="191" y="233" type="line" smooth="yes"/>
      <point x="191" y="371"/>
      <point x="227" y="442"/>
      <point x="306" y="442" type="curve" smooth="yes"/>
      <point x="349" y="442"/>
      <point x="374" y="437"/>
      <point x="405" y="430" type="curve"/>
      <point x="415" y="434"/>
      <point x="415" y="460"/>
      <point x="405" y="475" type="curve"/>
      <point x="382" y="516"/>
      <point x="327" y="560"/>
    </contour>
    <contour>
      <point x="526" y="-10" type="line"/>
      <point x="526" y="234"/>
      <point x="526" y="516"/>
      <point x="526" y="719" type="curve" smooth="yes"/>
      <point x="526" y="727"/>
      <point x="524" y="730"/>
      <point x="519" y="735" type="curve" smooth="yes"/>
      <point x="506" y="748"/>
      <point x="452" y="760"/>
      <point x="410" y="760" type="curve" smooth="yes"/>
      <point x="388" y="760" type="line"/>
      <point x="388" y="636"/>
      <point x="388" y="559"/>
      <point x="388" y="435" type="curve" smooth="yes"/>
      <point x="388" y="317"/>
      <point x="388" y="157"/>
      <point x="388" y="39" type="curve" smooth="yes"/>
      <point x="388" y="31"/>
      <point x="390" y="28"/>
      <point x="395" y="23" type="curve" smooth="yes"/>
      <point x="418" y="0"/>
      <point x="462" y="-10"/>
      <point x="504" y="-10" type="curve" smooth="yes"/>
    </contour>
    <contour>
      <point x="203" y="-12" type="curve" smooth="yes"/>
      <point x="262" y="-12"/>
      <point x="356" y="58"/>
      <point x="404" y="116" type="curve" smooth="yes"/>
      <point x="431" y="148"/>
      <point x="436" y="163"/>
      <point x="435" y="220" type="curve"/>
      <point x="346" y="146"/>
      <point x="285" y="126"/>
      <point x="211" y="126" type="curve" smooth="yes"/>
      <point x="157" y="126"/>
      <point x="137" y="173"/>
      <point x="96" y="236" type="curve"/>
      <point x="64" y="235"/>
      <point x="49" y="207"/>
      <point x="49" y="185" type="curve" smooth="yes"/>
      <point x="49" y="82"/>
      <point x="122" y="-12"/>
    </contour>
  </outline>
</glyph>
<glyph name="e" format="1">
  <advance width="600"/>
  <unicode hex="0065"/>
  <outline>
    <contour>
      <point x="360" y="560" type="curve"/>
      <point x="178" y="560"/>
      <point x="57" y="450"/>
      <point x="57" y="279" type="curve" smooth="yes"/>
      <point x="57" y="219" type="line"/>
      <point x="57" y="149"/>
      <point x="86" y="98"/>
      <point x="127" y="56" type="curve"/>
      <point x="155" y="28"/>
      <point x="202" y="21"/>
      <point x="241" y="43" type="curve"/>
      <point x="207" y="103"/>
      <point x="187" y="155"/>
      <point x="187" y="215" type="curve" smooth="yes"/>
      <point x="187" y="266" type="line" smooth="yes"/>
      <point x="187" y="385"/>
      <point x="255" y="430"/>
      <point x="344" y="430" type="curve" smooth="yes"/>
      <point x="393" y="430"/>
      <point x="424" y="424"/>
      <point x="452" y="404" type="curve"/>
      <point x="479" y="404"/>
      <point x="493" y="426"/>
      <point x="493" y="447" type="curve"/>
      <point x="493" y="511"/>
      <point x="421" y="560"/>
    </contour>
    <contour>
      <point x="352" y="215" type="line" smooth="yes"/>
      <point x="484" y="215"/>
      <point x="543" y="302"/>
      <point x="543" y="372" type="curve" smooth="yes"/>
      <point x="543" y="404" type="line" smooth="yes"/>
      <point x="543" y="432"/>
      <point x="529" y="464"/>
      <point x="490" y="502" type="curve" smooth="yes"/>
      <point x="454" y="539"/>
      <point x="414" y="560"/>
      <point x="369" y="560" type="curve" smooth="yes"/>
      <point x="360" y="560" type="line" smooth="yes"/>
      <point x="315" y="560"/>
      <point x="284" y="527"/>
      <point x="284" y="480" type="curve"/>
      <point x="366" y="480"/>
      <point x="413" y="457"/>
      <point x="413" y="407" type="curve" smooth="yes"/>
      <point x="413" y="365" type="line" smooth="yes"/>
      <point x="413" y="326"/>
      <point x="390" y="305"/>
      <point x="349" y="305" type="curve" smooth="yes"/>
      <point x="270" y="305"/>
      <point x="234" y="305"/>
      <point x="178" y="305" type="curve"/>
      <point x="175" y="300"/>
      <point x="175" y="295"/>
      <point x="175" y="289" type="curve"/>
      <point x="178" y="259"/>
      <point x="238" y="215"/>
      <point x="302" y="215" type="curve" smooth="yes"/>
    </contour>
    <contour>
      <point x="116" y="170" type="curve"/>
      <point x="85" y="140"/>
      <point x="97" y="87"/>
      <point x="127" y="56" type="curve"/>
      <point x="176" y="7"/>
      <point x="215" y="-20"/>
      <point x="288" y="-20" type="curve" smooth="yes"/>
      <point x="328" y="-20" type="line" smooth="yes"/>
      <point x="422" y="-20"/>
      <point x="483" y="3"/>
      <point x="507" y="28" type="curve" smooth="yes"/>
      <point x="518" y="40"/>
      <point x="523" y="52"/>
      <point x="523" y="70" type="curve"/>
      <point x="523" y="101"/>
      <point x="523" y="134"/>
      <point x="523" y="160" type="curve"/>
      <point x="501" y="160" type="line"/>
      <point x="465" y="124"/>
      <point x="399" y="110"/>
      <point x="300" y="110" type="curve" smooth="yes"/>
      <point x="225" y="110"/>
      <point x="163" y="126"/>
    </contour>
  </outline>
</glyph>
<glyph name="f" format="1">
  <advance width="600"/>
  <unicode hex="0066"/>
  <outline>
    <contour>
      <point x="245" y="617" type="curve"/>
      <point x="293" y="645"/>
      <point x="344" y="652"/>
      <point x="400" y="652" type="curve" smooth="yes"/>
      <point x="464" y="652"/>
      <point x="519" y="639"/>
      <point x="548" y="625" type="curve"/>
      <point x="570" y="625" type="line"/>
      <point x="570" y="648" type="line"/>
      <point x="570" y="689"/>
      <point x="559" y="726"/>
      <point x="546" y="742" type="curve" smooth="yes"/>
      <point x="532" y="758"/>
      <point x="483" y="770"/>
      <point x="441" y="770" type="curve"/>
      <point x="423" y="770" type="line"/>
      <point x="352" y="770"/>
      <point x="298" y="765"/>
      <point x="240" y="708" type="curve" smooth="yes"/>
      <point x="216" y="684"/>
      <point x="213" y="639"/>
    </contour>
    <contour>
      <point x="310" y="-10" type="line"/>
      <point x="310" y="182"/>
      <point x="310" y="317"/>
      <point x="310" y="500" type="curve" smooth="yes"/>
      <point x="298" y="580"/>
      <point x="289" y="654"/>
      <point x="301" y="721" type="curve"/>
      <point x="279" y="731"/>
      <point x="259" y="727"/>
      <point x="240" y="708" type="curve" smooth="yes"/>
      <point x="197" y="664"/>
      <point x="180" y="632"/>
      <point x="180" y="584" type="curve"/>
      <point x="180" y="439"/>
      <point x="180" y="239"/>
      <point x="180" y="39" type="curve"/>
      <point x="180" y="31"/>
      <point x="182" y="28"/>
      <point x="187" y="23" type="curve" smooth="yes"/>
      <point x="210" y="0"/>
      <point x="246" y="-10"/>
      <point x="288" y="-10" type="curve" smooth="yes"/>
    </contour>
    <contour>
      <point x="35" y="490" type="curve"/>
      <point x="35" y="468" type="line" smooth="yes"/>
      <point x="35" y="424"/>
      <point x="46" y="389"/>
      <point x="68" y="367" type="curve" smooth="yes"/>
      <point x="74" y="361"/>
      <point x="77" y="360"/>
      <point x="84" y="360" type="curve"/>
      <point x="135" y="360"/>
      <point x="202" y="360"/>
      <point x="253" y="360" type="curve"/>
      <point x="295" y="360"/>
      <point x="509" y="360"/>
      <point x="540" y="360" type="curve"/>
      <point x="540" y="382" type="line" smooth="yes"/>
      <point x="540" y="427"/>
      <point x="529" y="461"/>
      <point x="507" y="483" type="curve" smooth="yes"/>
      <point x="501" y="489"/>
      <point x="498" y="490"/>
      <point x="491" y="490" type="curve" smooth="yes"/>
      <point x="412" y="490"/>
      <point x="115" y="490"/>
    </contour>
  </outline>
</glyph>
<glyph name="g" format="1">
  <advance width="600"/>
  <unicode hex="0067"/>
  <outline>
    <contour>
      <point x="322" y="447" type="curve" smooth="yes"/>
      <point x="369" y="447"/>
      <point x="410" y="437"/>
      <point x="441" y="424" type="curve"/>
      <point x="474" y="472"/>
      <point x="474" y="508"/>
      <point x="455" y="527" type="curve" smooth="yes"/>
      <point x="434" y="548"/>
      <point x="374" y="560"/>
      <point x="314" y="560" type="curve" smooth="yes"/>
      <point x="174" y="560"/>
      <point x="65" y="481"/>
      <point x="65" y="358" type="curve" smooth="yes"/>
      <point x="65" y="332" type="line" smooth="yes"/>
      <point x="65" y="290"/>
      <point x="83" y="251"/>
      <point x="126" y="207" type="curve" smooth="yes"/>
      <point x="140" y="194"/>
      <point x="207" y="188"/>
      <point x="218" y="202" type="curve"/>
      <point x="198" y="238"/>
      <point x="187" y="263"/>
      <point x="187" y="316" type="curve" smooth="yes"/>
      <point x="187" y="335" type="line" smooth="yes"/>
      <point x="187" y="418"/>
      <point x="231" y="447"/>
    </contour>
    <contour>
      <point x="296" y="267" type="curve" smooth="yes"/>
      <point x="236" y="267"/>
      <point x="161" y="273"/>
      <point x="116" y="293" type="curve"/>
      <point x="105" y="264"/>
      <point x="105" y="229"/>
      <point x="126" y="207" type="curve" smooth="yes"/>
      <point x="178" y="156"/>
      <point x="235" y="153"/>
      <point x="308" y="153" type="curve" smooth="yes"/>
      <point x="444" y="153"/>
      <point x="533" y="233"/>
      <point x="533" y="346" type="curve" smooth="yes"/>
      <point x="533" y="373" type="line" smooth="yes"/>
      <point x="533" y="423"/>
      <point x="523" y="459"/>
      <point x="455" y="527" type="curve" smooth="yes"/>
      <point x="435" y="547"/>
      <point x="383" y="538"/>
      <point x="361" y="516" type="curve"/>
      <point x="394" y="489"/>
      <point x="411" y="454"/>
      <point x="411" y="386" type="curve" smooth="yes"/>
      <point x="411" y="369" type="line" smooth="yes"/>
      <point x="411" y="303"/>
      <point x="366" y="267"/>
    </contour>
    <contour>
      <point x="160" y="54" type="curve" smooth="yes"/>
      <point x="160" y="41" type="line" smooth="yes"/>
      <point x="160" y="-17"/>
      <point x="213" y="-53"/>
      <point x="297" y="-53" type="curve" smooth="yes"/>
      <point x="412" y="-53" type="line" smooth="yes"/>
      <point x="429" y="-53"/>
      <point x="440" y="-66"/>
      <point x="440" y="-84" type="curve" smooth="yes"/>
      <point x="440" y="-121" type="line" smooth="yes"/>
      <point x="440" y="-153"/>
      <point x="438" y="-177"/>
      <point x="433" y="-203" type="curve"/>
      <point x="452" y="-205"/>
      <point x="505" y="-193"/>
      <point x="518" y="-180" type="curve" smooth="yes"/>
      <point x="555" y="-144"/>
      <point x="568" y="-115"/>
      <point x="568" y="-70" type="curve" smooth="yes"/>
      <point x="568" y="-57" type="line" smooth="yes"/>
      <point x="568" y="13"/>
      <point x="513" y="65"/>
      <point x="441" y="65" type="curve" smooth="yes"/>
      <point x="303" y="65" type="line" smooth="yes"/>
      <point x="287" y="65"/>
      <point x="282" y="70"/>
      <point x="282" y="86" type="curve" smooth="yes"/>
      <point x="282" y="117" type="line" smooth="yes"/>
      <point x="282" y="134"/>
      <point x="285" y="155"/>
      <point x="289" y="170" type="curve"/>
      <point x="289" y="177"/>
      <point x="288" y="183"/>
      <point x="286" y="187" type="curve" smooth="yes"/>
      <point x="241" y="187"/>
      <point x="160" y="112"/>
    </contour>
    <contour>
      <point x="543" y="-99" type="curve"/>
      <point x="465" y="-154"/>
      <point x="412" y="-160"/>
      <point x="333" y="-160" type="curve"/>
      <point x="258" y="-160" type="line"/>
      <point x="195" y="-160"/>
      <point x="168" y="-143"/>
      <point x="168" y="-101" type="curve" smooth="yes"/>
      <point x="168" y="-76" type="line" smooth="yes"/>
      <point x="168" y="-50"/>
      <point x="188" y="-29"/>
      <point x="230" y="-8" type="curve"/>
      <point x="230" y="6"/>
      <point x="219" y="17"/>
      <point x="205" y="17" type="curve"/>
      <point x="103" y="17"/>
      <point x="40" y="-36"/>
      <point x="40" y="-111" type="curve" smooth="yes"/>
      <point x="40" y="-123" type="line" smooth="yes"/>
      <point x="40" y="-197"/>
      <point x="119" y="-250"/>
      <point x="229" y="-250" type="curve"/>
      <point x="282" y="-250" type="line"/>
      <point x="383" y="-250"/>
      <point x="466" y="-233"/>
      <point x="518" y="-180" type="curve"/>
      <point x="548" y="-151"/>
      <point x="558" y="-114"/>
    </contour>
    <contour>
      <point x="447" y="505" type="curve" smooth="yes"/>
      <point x="527" y="567" type="line" smooth="yes"/>
      <point x="553" y="588"/>
      <point x="568" y="606"/>
      <point x="568" y="632" type="curve" smooth="yes"/>
      <point x="568" y="638"/>
      <point x="568" y="648"/>
      <point x="568" y="656" type="curve" smooth="yes"/>
      <point x="568" y="664"/>
      <point x="566" y="667"/>
      <point x="561" y="672" type="curve" smooth="yes"/>
      <point x="538" y="695"/>
      <point x="494" y="705"/>
      <point x="452" y="705" type="curve" smooth="yes"/>
      <point x="438" y="705" type="line"/>
      <point x="438" y="693"/>
      <point x="438" y="680"/>
      <point x="438" y="668" type="curve" smooth="yes"/>
      <point x="438" y="649"/>
      <point x="435" y="636"/>
      <point x="431" y="619" type="curve" smooth="yes"/>
      <point x="403" y="513" type="line"/>
      <point x="415" y="503"/>
      <point x="436" y="498"/>
    </contour>
  </outline>
</glyph>
<glyph name="h" format="1">
  <advance width="600"/>
  <unicode hex="0068"/>
  <outline>
    <contour>
      <point x="212" y="-10" type="line"/>
      <point x="212" y="182"/>
      <point x="212" y="568"/>
      <point x="212" y="719" type="curve" smooth="yes"/>
      <point x="212" y="727"/>
      <point x="210" y="730"/>
      <point x="205" y="735" type="curve" smooth="yes"/>
      <point x="192" y="748"/>
      <point x="138" y="760"/>
      <point x="96" y="760" type="curve" smooth="yes"/>
      <point x="74" y="760" type="line"/>
      <point x="74" y="625"/>
      <point x="74" y="332"/>
      <point x="74" y="197" type="curve" smooth="yes"/>
      <point x="74" y="145"/>
      <point x="74" y="91"/>
      <point x="74" y="39" type="curve" smooth="yes"/>
      <point x="74" y="31"/>
      <point x="76" y="28"/>
      <point x="81" y="23" type="curve" smooth="yes"/>
      <point x="104" y="0"/>
      <point x="148" y="-10"/>
      <point x="190" y="-10" type="curve" smooth="yes"/>
    </contour>
    <contour>
      <point x="389" y="552" type="curve" smooth="yes"/>
      <point x="332" y="552"/>
      <point x="243" y="481"/>
      <point x="196" y="424" type="curve" smooth="yes"/>
      <point x="169" y="392"/>
      <point x="164" y="377"/>
      <point x="165" y="320" type="curve"/>
      <point x="260" y="417"/>
      <point x="309" y="422"/>
      <point x="379" y="422" type="curve" smooth="yes"/>
      <point x="425" y="422"/>
      <point x="454" y="407"/>
      <point x="479" y="372" type="curve"/>
      <point x="512" y="372"/>
      <point x="526" y="392"/>
      <point x="526" y="414" type="curve" smooth="yes"/>
      <point x="526" y="468"/>
      <point x="455" y="552"/>
    </contour>
    <contour>
      <point x="526" y="-10" type="line"/>
      <point x="526" y="138"/>
      <point x="526" y="266"/>
      <point x="526" y="414" type="curve" smooth="yes"/>
      <point x="526" y="421"/>
      <point x="524" y="424"/>
      <point x="519" y="430" type="curve" smooth="yes"/>
      <point x="496" y="452"/>
      <point x="452" y="462"/>
      <point x="410" y="462" type="curve" smooth="yes"/>
      <point x="388" y="462" type="line"/>
      <point x="388" y="368"/>
      <point x="388" y="292"/>
      <point x="388" y="197" type="curve" smooth="yes"/>
      <point x="388" y="145"/>
      <point x="388" y="91"/>
      <point x="388" y="39" type="curve" smooth="yes"/>
      <point x="388" y="31"/>
      <point x="390" y="28"/>
      <point x="395" y="23" type="curve" smooth="yes"/>
      <point x="418" y="0"/>
      <point x="462" y="-10"/>
      <point x="504" y="-10" type="curve" smooth="yes"/>
    </contour>
  </outline>
</glyph>
<glyph name="i" format="1">
  <advance width="300"/>
  <unicode hex="0069"/>
  <outline>
    <contour>
      <point x="230" y="621" type="line"/>
      <point x="230" y="652"/>
      <point x="230" y="696"/>
      <point x="230" y="727" type="curve" smooth="yes"/>
      <point x="230" y="735"/>
      <point x="228" y="738"/>
      <point x="222" y="744" type="curve" smooth="yes"/>
      <point x="202" y="764"/>
      <point x="176" y="770"/>
      <point x="142" y="770" type="curve"/>
      <point x="70" y="770" type="line"/>
      <point x="70" y="739"/>
      <point x="70" y="696"/>
      <point x="70" y="664" type="curve" smooth="yes"/>
      <point x="70" y="656"/>
      <point x="72" y="653"/>
      <point x="78" y="647" type="curve" smooth="yes"/>
      <point x="97" y="628"/>
      <point x="124" y="621"/>
      <point x="158" y="621" type="curve"/>
    </contour>
    <contour>
      <point x="219" y="-10" type="line"/>
      <point x="219" y="160"/>
      <point x="219" y="332"/>
      <point x="219" y="501" type="curve" smooth="yes"/>
      <point x="219" y="509"/>
      <point x="217" y="512"/>
      <point x="212" y="517" type="curve" smooth="yes"/>
      <point x="199" y="530"/>
      <point x="145" y="542"/>
      <point x="103" y="542" type="curve" smooth="yes"/>
      <point x="81" y="542" type="line"/>
      <point x="81" y="426"/>
      <point x="81" y="305"/>
      <point x="81" y="189" type="curve" smooth="yes"/>
      <point x="81" y="139"/>
      <point x="81" y="88"/>
      <point x="81" y="39" type="curve" smooth="yes"/>
      <point x="81" y="31"/>
      <point x="83" y="28"/>
      <point x="88" y="23" type="curve" smooth="yes"/>
      <point x="111" y="0"/>
      <point x="155" y="-10"/>
      <point x="197" y="-10" type="curve" smooth="yes"/>
    </contour>
  </outline>
</glyph>
<glyph name="j" format="1">
  <advance width="300"/>
  <unicode hex="006A"/>
  <outline>
    <contour>
      <point x="230" y="621" type="line"/>
      <point x="230" y="652"/>
      <point x="230" y="696"/>
      <point x="230" y="727" type="curve" smooth="yes"/>
      <point x="230" y="735"/>
      <point x="228" y="738"/>
      <point x="222" y="744" type="curve" smooth="yes"/>
      <point x="202" y="764"/>
      <point x="176" y="770"/>
      <point x="142" y="770" type="curve"/>
      <point x="70" y="770" type="line"/>
      <point x="70" y="739"/>
      <point x="70" y="696"/>
      <point x="70" y="664" type="curve" smooth="yes"/>
      <point x="70" y="656"/>
      <point x="72" y="653"/>
      <point x="78" y="647" type="curve" smooth="yes"/>
      <point x="97" y="628"/>
      <point x="124" y="621"/>
      <point x="158" y="621" type="curve"/>
    </contour>
    <contour>
      <point x="64" y="-250" type="line"/>
      <point x="135" y="-250"/>
      <point x="219" y="-194"/>
      <point x="219" y="-16" type="curve" smooth="yes"/>
      <point x="219" y="156"/>
      <point x="219" y="330"/>
      <point x="219" y="501" type="curve" smooth="yes"/>
      <point x="219" y="509"/>
      <point x="217" y="512"/>
      <point x="212" y="517" type="curve" smooth="yes"/>
      <point x="199" y="530"/>
      <point x="145" y="542"/>
      <point x="103" y="542" type="curve" smooth="yes"/>
      <point x="81" y="542" type="line"/>
      <point x="81" y="434"/>
      <point x="81" y="314"/>
      <point x="81" y="217" type="curve"/>
      <point x="81" y="139"/>
      <point x="81" y="62"/>
      <point x="81" y="-16" type="curve" smooth="yes"/>
      <point x="81" y="-94"/>
      <point x="58" y="-120"/>
      <point x="2" y="-120" type="curve"/>
      <point x="-8" y="-120" type="line"/>
      <point x="-8" y="-132" type="line" smooth="yes"/>
      <point x="-8" y="-202"/>
      <point x="19" y="-250"/>
      <point x="50" y="-250" type="curve" smooth="yes"/>
    </contour>
  </outline>
</glyph>
<glyph name="k" format="1">
  <advance width="600"/>
  <unicode hex="006B"/>
  <outline>
    <contour>
      <point x="204" y="-10" type="line"/>
      <point x="204" y="164"/>
      <point x="204" y="584"/>
      <point x="204" y="717" type="curve" smooth="yes"/>
      <point x="204" y="725"/>
      <point x="202" y="728"/>
      <point x="197" y="733" type="curve" smooth="yes"/>
      <point x="184" y="746"/>
      <point x="138" y="758"/>
      <point x="96" y="758" type="curve" smooth="yes"/>
      <point x="74" y="758" type="line"/>
      <point x="74" y="640"/>
      <point x="74" y="315"/>
      <point x="74" y="197" type="curve" smooth="yes"/>
      <point x="74" y="145"/>
      <point x="74" y="91"/>
      <point x="74" y="39" type="curve" smooth="yes"/>
      <point x="74" y="31"/>
      <point x="76" y="28"/>
      <point x="81" y="23" type="curve" smooth="yes"/>
      <point x="104" y="0"/>
      <point x="140" y="-10"/>
      <point x="182" y="-10" type="curve" smooth="yes"/>
    </contour>
    <contour>
      <point x="303" y="314" type="line"/>
      <point x="240" y="259"/>
      <point x="235" y="214"/>
      <point x="252" y="195" type="curve" smooth="yes"/>
      <point x="365" y="63" type="line" smooth="yes"/>
      <point x="423" y="-4"/>
      <point x="450" y="-20"/>
      <point x="506" y="-20" type="curve" smooth="yes"/>
      <point x="525" y="-20"/>
      <point x="548" y="-6"/>
      <point x="548" y="14" type="curve" smooth="yes"/>
      <point x="548" y="130" type="line"/>
      <point x="526" y="130" type="line"/>
      <point x="518" y="128"/>
      <point x="507" y="126"/>
      <point x="498" y="126" type="curve" smooth="yes"/>
      <point x="466" y="126"/>
      <point x="452" y="134"/>
      <point x="432" y="158" type="curve" smooth="yes"/>
    </contour>
    <contour>
      <point x="435" y="550" type="curve" smooth="yes"/>
      <point x="414" y="550" type="line"/>
      <point x="355" y="374"/>
      <point x="255" y="280"/>
      <point x="122" y="229" type="curve"/>
      <point x="122" y="185"/>
      <point x="148" y="163"/>
      <point x="170" y="166" type="curve" smooth="yes"/>
      <point x="305" y="191"/>
      <point x="444" y="283"/>
      <point x="531" y="463" type="curve" smooth="yes"/>
      <point x="540" y="482"/>
      <point x="541" y="488"/>
      <point x="541" y="495" type="curve" smooth="yes"/>
      <point x="541" y="522"/>
      <point x="486" y="550"/>
    </contour>
  </outline>
</glyph>
<glyph name="l" format="1">
  <advance width="300"/>
  <unicode hex="006C"/>
  <outline>
    <contour>
      <point x="18" y="750" type="curve"/>
      <point x="18" y="728" type="line" smooth="yes"/>
      <point x="18" y="671"/>
      <point x="24" y="642"/>
      <point x="39" y="627" type="curve" smooth="yes"/>
      <point x="44" y="622"/>
      <point x="47" y="620"/>
      <point x="55" y="620" type="curve"/>
      <point x="88" y="620"/>
      <point x="131" y="620"/>
      <point x="163" y="620" type="curve"/>
      <point x="163" y="642" type="line" smooth="yes"/>
      <point x="163" y="665"/>
      <point x="143" y="714"/>
      <point x="115" y="743" type="curve" smooth="yes"/>
      <point x="109" y="748"/>
      <point x="106" y="750"/>
      <point x="99" y="750" type="curve" smooth="yes"/>
      <point x="81" y="750"/>
      <point x="36" y="750"/>
    </contour>
    <contour>
      <point x="219" y="-10" type="line"/>
      <point x="219" y="164"/>
      <point x="219" y="576"/>
      <point x="219" y="709" type="curve" smooth="yes"/>
      <point x="219" y="717"/>
      <point x="217" y="720"/>
      <point x="212" y="725" type="curve" smooth="yes"/>
      <point x="199" y="738"/>
      <point x="145" y="750"/>
      <point x="103" y="750" type="curve" smooth="yes"/>
      <point x="81" y="750" type="line"/>
      <point x="81" y="632"/>
      <point x="81" y="315"/>
      <point x="81" y="197" type="curve" smooth="yes"/>
      <point x="81" y="145"/>
      <point x="81" y="91"/>
      <point x="81" y="39" type="curve" smooth="yes"/>
      <point x="81" y="31"/>
      <point x="83" y="28"/>
      <point x="88" y="23" type="curve" smooth="yes"/>
      <point x="111" y="0"/>
      <point x="155" y="-10"/>
      <point x="197" y="-10" type="curve" smooth="yes"/>
    </contour>
  </outline>
</glyph>
<glyph name="m" format="1">
  <advance width="900"/>
  <unicode hex="006D"/>
  <outline>
    <contour>
      <point x="210" y="-10" type="line"/>
      <point x="210" y="163"/>
      <point x="210" y="336"/>
      <point x="210" y="509" type="curve" smooth="yes"/>
      <point x="210" y="517"/>
      <point x="208" y="520"/>
      <point x="203" y="525" type="curve" smooth="yes"/>
      <point x="190" y="538"/>
      <point x="136" y="550"/>
      <point x="94" y="550" type="curve" smooth="yes"/>
      <point x="72" y="550" type="line"/>
      <point x="72" y="433"/>
      <point x="72" y="314"/>
      <point x="72" y="197" type="curve" smooth="yes"/>
      <point x="72" y="145"/>
      <point x="72" y="91"/>
      <point x="72" y="39" type="curve" smooth="yes"/>
      <point x="72" y="31"/>
      <point x="74" y="28"/>
      <point x="79" y="23" type="curve" smooth="yes"/>
      <point x="102" y="0"/>
      <point x="146" y="-10"/>
      <point x="188" y="-10" type="curve" smooth="yes"/>
    </contour>
    <contour>
      <point x="387" y="552" type="curve" smooth="yes"/>
      <point x="328" y="552"/>
      <point x="242" y="481"/>
      <point x="194" y="424" type="curve" smooth="yes"/>
      <point x="167" y="392"/>
      <point x="162" y="377"/>
      <point x="163" y="320" type="curve"/>
      <point x="251" y="393"/>
      <point x="306" y="414"/>
      <point x="379" y="414" type="curve" smooth="yes"/>
      <point x="421" y="414"/>
      <point x="452" y="399"/>
      <point x="475" y="361" type="curve"/>
      <point x="508" y="367"/>
      <point x="523" y="393"/>
      <point x="523" y="413" type="curve" smooth="yes"/>
      <point x="523" y="467"/>
      <point x="451" y="552"/>
    </contour>
    <contour>
      <point x="523" y="-10" type="line"/>
      <point x="523" y="138"/>
      <point x="523" y="265"/>
      <point x="523" y="413" type="curve" smooth="yes"/>
      <point x="523" y="420"/>
      <point x="521" y="424"/>
      <point x="516" y="429" type="curve" smooth="yes"/>
      <point x="493" y="451"/>
      <point x="449" y="462"/>
      <point x="407" y="462" type="curve" smooth="yes"/>
      <point x="385" y="462" type="line"/>
      <point x="385" y="368"/>
      <point x="385" y="292"/>
      <point x="385" y="197" type="curve" smooth="yes"/>
      <point x="385" y="145"/>
      <point x="385" y="91"/>
      <point x="385" y="39" type="curve" smooth="yes"/>
      <point x="385" y="31"/>
      <point x="387" y="28"/>
      <point x="392" y="23" type="curve" smooth="yes"/>
      <point x="415" y="0"/>
      <point x="459" y="-10"/>
      <point x="501" y="-10" type="curve" smooth="yes"/>
    </contour>
    <contour>
      <point x="692" y="552" type="curve" smooth="yes"/>
      <point x="633" y="552"/>
      <point x="547" y="481"/>
      <point x="499" y="424" type="curve" smooth="yes"/>
      <point x="472" y="392"/>
      <point x="467" y="377"/>
      <point x="468" y="320" type="curve"/>
      <point x="556" y="393"/>
      <point x="611" y="414"/>
      <point x="684" y="414" type="curve" smooth="yes"/>
      <point x="726" y="414"/>
      <point x="757" y="399"/>
      <point x="780" y="361" type="curve"/>
      <point x="813" y="367"/>
      <point x="828" y="393"/>
      <point x="828" y="413" type="curve" smooth="yes"/>
      <point x="828" y="467"/>
      <point x="756" y="552"/>
    </contour>
    <contour>
      <point x="828" y="-10" type="line"/>
      <point x="828" y="138"/>
      <point x="828" y="265"/>
      <point x="828" y="413" type="curve" smooth="yes"/>
      <point x="828" y="420"/>
      <point x="826" y="424"/>
      <point x="821" y="429" type="curve" smooth="yes"/>
      <point x="798" y="451"/>
      <point x="754" y="462"/>
      <point x="712" y="462" type="curve" smooth="yes"/>
      <point x="690" y="462" type="line"/>
      <point x="690" y="368"/>
      <point x="690" y="292"/>
      <point x="690" y="197" type="curve" smooth="yes"/>
      <point x="690" y="145"/>
      <point x="690" y="91"/>
      <point x="690" y="39" type="curve" smooth="yes"/>
      <point x="690" y="31"/>
      <point x="692" y="28"/>
      <point x="697" y="23" type="curve" smooth="yes"/>
      <point x="720" y="0"/>
      <point x="764" y="-10"/>
      <point x="806" y="-10" type="curve" smooth="yes"/>
    </contour>
  </outline>
</glyph>
<glyph name="n" format="1">
  <advance width="600"/>
  <unicode hex="006E"/>
  <outline>
    <contour>
      <point x="212" y="-10" type="line"/>
      <point x="212" y="163"/>
      <point x="212" y="336"/>
      <point x="212" y="509" type="curve" smooth="yes"/>
      <point x="212" y="517"/>
      <point x="210" y="520"/>
      <point x="205" y="525" type="curve" smooth="yes"/>
      <point x="192" y="538"/>
      <point x="138" y="550"/>
      <point x="96" y="550" type="curve" smooth="yes"/>
      <point x="74" y="550" type="line"/>
      <point x="74" y="433"/>
      <point x="74" y="314"/>
      <point x="74" y="197" type="curve" smooth="yes"/>
      <point x="74" y="145"/>
      <point x="74" y="91"/>
      <point x="74" y="39" type="curve" smooth="yes"/>
      <point x="74" y="31"/>
      <point x="76" y="28"/>
      <point x="81" y="23" type="curve" smooth="yes"/>
      <point x="104" y="0"/>
      <point x="148" y="-10"/>
      <point x="190" y="-10" type="curve" smooth="yes"/>
    </contour>
    <contour>
      <point x="389" y="552" type="curve" smooth="yes"/>
      <point x="332" y="552"/>
      <point x="243" y="481"/>
      <point x="196" y="424" type="curve" smooth="yes"/>
      <point x="169" y="392"/>
      <point x="164" y="377"/>
      <point x="165" y="320" type="curve"/>
      <point x="252" y="393"/>
      <point x="309" y="414"/>
      <point x="379" y="414" type="curve" smooth="yes"/>
      <point x="425" y="414"/>
      <point x="454" y="399"/>
      <point x="479" y="364" type="curve"/>
      <point x="512" y="364"/>
      <point x="526" y="392"/>
      <point x="526" y="414" type="curve" smooth="yes"/>
      <point x="526" y="468"/>
      <point x="455" y="552"/>
    </contour>
    <contour>
      <point x="526" y="-10" type="line"/>
      <point x="526" y="138"/>
      <point x="526" y="266"/>
      <point x="526" y="414" type="curve" smooth="yes"/>
      <point x="526" y="421"/>
      <point x="524" y="424"/>
      <point x="519" y="430" type="curve" smooth="yes"/>
      <point x="496" y="452"/>
      <point x="452" y="462"/>
      <point x="410" y="462" type="curve" smooth="yes"/>
      <point x="388" y="462" type="line"/>
      <point x="388" y="368"/>
      <point x="388" y="292"/>
      <point x="388" y="197" type="curve" smooth="yes"/>
      <point x="388" y="145"/>
      <point x="388" y="91"/>
      <point x="388" y="39" type="curve" smooth="yes"/>
      <point x="388" y="31"/>
      <point x="390" y="28"/>
      <point x="395" y="23" type="curve" smooth="yes"/>
      <point x="418" y="0"/>
      <point x="462" y="-10"/>
      <point x="504" y="-10" type="curve" smooth="yes"/>
    </contour>
  </outline>
</glyph>
<glyph name="o" format="1">
  <advance width="600"/>
  <unicode hex="006F"/>
  <outline>
    <contour>
      <point x="292" y="560" type="curve" smooth="yes"/>
      <point x="154" y="560"/>
      <point x="55" y="451"/>
      <point x="55" y="293" type="curve" smooth="yes"/>
      <point x="55" y="251" type="line" smooth="yes"/>
      <point x="55" y="87"/>
      <point x="162" y="-20"/>
      <point x="286" y="-20" type="curve" smooth="yes"/>
      <point x="308" y="-20" type="line" smooth="yes"/>
      <point x="342" y="-20"/>
      <point x="364" y="14"/>
      <point x="364" y="61" type="curve"/>
      <point x="235" y="65"/>
      <point x="185" y="125"/>
      <point x="185" y="224" type="curve" smooth="yes"/>
      <point x="185" y="269" type="line" smooth="yes"/>
      <point x="185" y="357"/>
      <point x="231" y="431"/>
      <point x="321" y="431" type="curve" smooth="yes"/>
      <point x="373" y="431"/>
      <point x="390" y="425"/>
      <point x="419" y="410" type="curve"/>
      <point x="432" y="422"/>
      <point x="434" y="427"/>
      <point x="434" y="451" type="curve"/>
      <point x="434" y="508"/>
      <point x="359" y="560"/>
    </contour>
    <contour>
      <point x="308" y="-20" type="curve" smooth="yes"/>
      <point x="446" y="-20"/>
      <point x="545" y="89"/>
      <point x="545" y="247" type="curve" smooth="yes"/>
      <point x="545" y="289" type="line" smooth="yes"/>
      <point x="545" y="453"/>
      <point x="438" y="560"/>
      <point x="314" y="560" type="curve" smooth="yes"/>
      <point x="292" y="560" type="line" smooth="yes"/>
      <point x="258" y="560"/>
      <point x="236" y="526"/>
      <point x="236" y="479" type="curve"/>
      <point x="365" y="475"/>
      <point x="415" y="415"/>
      <point x="415" y="316" type="curve" smooth="yes"/>
      <point x="415" y="271" type="line" smooth="yes"/>
      <point x="415" y="183"/>
      <point x="369" y="109"/>
      <point x="279" y="109" type="curve" smooth="yes"/>
      <point x="227" y="109"/>
      <point x="210" y="115"/>
      <point x="181" y="130" type="curve"/>
      <point x="168" y="118"/>
      <point x="166" y="113"/>
      <point x="166" y="89" type="curve"/>
      <point x="166" y="32"/>
      <point x="241" y="-20"/>
    </contour>
  </outline>
</glyph>
<glyph name="p" format="1">
  <advance width="600"/>
  <unicode hex="0070"/>
  <outline>
    <contour>
      <point x="212" y="-230" type="line"/>
      <point x="212" y="8"/>
      <point x="212" y="269"/>
      <point x="212" y="507" type="curve" smooth="yes"/>
      <point x="212" y="515"/>
      <point x="210" y="518"/>
      <point x="205" y="523" type="curve" smooth="yes"/>
      <point x="192" y="536"/>
      <point x="138" y="548"/>
      <point x="96" y="548" type="curve" smooth="yes"/>
      <point x="74" y="548" type="line"/>
      <point x="74" y="432"/>
      <point x="74" y="313"/>
      <point x="74" y="197" type="curve" smooth="yes"/>
      <point x="74" y="80"/>
      <point x="74" y="-64"/>
      <point x="74" y="-181" type="curve" smooth="yes"/>
      <point x="74" y="-189"/>
      <point x="76" y="-192"/>
      <point x="81" y="-197" type="curve" smooth="yes"/>
      <point x="104" y="-220"/>
      <point x="148" y="-230"/>
      <point x="190" y="-230" type="curve" smooth="yes"/>
    </contour>
    <contour>
      <point x="397" y="552" type="curve" smooth="yes"/>
      <point x="334" y="552"/>
      <point x="250" y="490"/>
      <point x="196" y="424" type="curve" smooth="yes"/>
      <point x="170" y="392"/>
      <point x="164" y="377"/>
      <point x="165" y="320" type="curve"/>
      <point x="254" y="394"/>
      <point x="315" y="414"/>
      <point x="389" y="414" type="curve" smooth="yes"/>
      <point x="440" y="414"/>
      <point x="469" y="378"/>
      <point x="501" y="325" type="curve"/>
      <point x="534" y="326"/>
      <point x="553" y="351"/>
      <point x="553" y="371" type="curve" smooth="yes"/>
      <point x="553" y="463"/>
      <point x="468" y="552"/>
    </contour>
    <contour>
      <point x="340" y="-20" type="curve" smooth="yes"/>
      <point x="477" y="-20"/>
      <point x="553" y="138"/>
      <point x="553" y="331" type="curve" smooth="yes"/>
      <point x="553" y="371" type="line" smooth="yes"/>
      <point x="553" y="416"/>
      <point x="514" y="482"/>
      <point x="459" y="482" type="curve"/>
      <point x="418" y="482"/>
      <point x="387" y="471"/>
      <point x="386" y="442" type="curve"/>
      <point x="402" y="422"/>
      <point x="411" y="400"/>
      <point x="411" y="353" type="curve" smooth="yes"/>
      <point x="411" y="331" type="line" smooth="yes"/>
      <point x="411" y="195"/>
      <point x="354" y="106"/>
      <point x="280" y="106" type="curve" smooth="yes"/>
      <point x="247" y="106"/>
      <point x="222" y="109"/>
      <point x="197" y="114" type="curve"/>
      <point x="193" y="110"/>
      <point x="191" y="107"/>
      <point x="191" y="99" type="curve"/>
      <point x="191" y="60"/>
      <point x="264" y="-20"/>
    </contour>
  </outline>
</glyph>
<glyph name="q" format="1">
  <advance width="600"/>
  <unicode hex="0071"/>
  <outline>
    <contour>
      <point x="526" y="-230" type="line"/>
      <point x="526" y="9"/>
      <point x="526" y="271"/>
      <point x="526" y="509" type="curve" smooth="yes"/>
      <point x="526" y="517"/>
      <point x="524" y="520"/>
      <point x="519" y="525" type="curve" smooth="yes"/>
      <point x="506" y="538"/>
      <point x="452" y="550"/>
      <point x="410" y="550" type="curve" smooth="yes"/>
      <point x="388" y="550" type="line"/>
      <point x="388" y="442"/>
      <point x="388" y="331"/>
      <point x="388" y="223" type="curve" smooth="yes"/>
      <point x="388" y="93"/>
      <point x="388" y="-51"/>
      <point x="388" y="-181" type="curve" smooth="yes"/>
      <point x="388" y="-189"/>
      <point x="390" y="-192"/>
      <point x="395" y="-197" type="curve" smooth="yes"/>
      <point x="418" y="-220"/>
      <point x="462" y="-230"/>
      <point x="504" y="-230" type="curve" smooth="yes"/>
    </contour>
    <contour>
      <point x="260" y="560" type="curve" smooth="yes"/>
      <point x="153" y="560"/>
      <point x="49" y="456"/>
      <point x="49" y="231" type="curve" smooth="yes"/>
      <point x="49" y="185" type="line" smooth="yes"/>
      <point x="49" y="137"/>
      <point x="91" y="67"/>
      <point x="165" y="67" type="curve"/>
      <point x="191" y="67"/>
      <point x="211" y="76"/>
      <point x="211" y="100" type="curve"/>
      <point x="196" y="120"/>
      <point x="191" y="154"/>
      <point x="191" y="219" type="curve" smooth="yes"/>
      <point x="191" y="233" type="line" smooth="yes"/>
      <point x="191" y="365"/>
      <point x="226" y="434"/>
      <point x="300" y="434" type="curve" smooth="yes"/>
      <point x="345" y="434"/>
      <point x="368" y="428"/>
      <point x="403" y="412" type="curve"/>
      <point x="413" y="416"/>
      <point x="412" y="442"/>
      <point x="403" y="457" type="curve"/>
      <point x="378" y="504"/>
      <point x="326" y="560"/>
    </contour>
    <contour>
      <point x="203" y="-12" type="curve" smooth="yes"/>
      <point x="262" y="-12"/>
      <point x="357" y="57"/>
      <point x="404" y="114" type="curve" smooth="yes"/>
      <point x="431" y="146"/>
      <point x="436" y="161"/>
      <point x="435" y="218" type="curve"/>
      <point x="347" y="145"/>
      <point x="285" y="126"/>
      <point x="211" y="126" type="curve" smooth="yes"/>
      <point x="157" y="126"/>
      <point x="137" y="173"/>
      <point x="96" y="236" type="curve"/>
      <point x="64" y="235"/>
      <point x="49" y="207"/>
      <point x="49" y="185" type="curve" smooth="yes"/>
      <point x="49" y="82"/>
      <point x="122" y="-12"/>
    </contour>
  </outline>
</glyph>
<glyph name="r" format="1">
  <advance width="600"/>
  <unicode hex="0072"/>
  <outline>
    <contour>
      <point x="400" y="560" type="curve" smooth="yes"/>
      <point x="353" y="560"/>
      <point x="284" y="487"/>
      <point x="239" y="425" type="curve" smooth="yes"/>
      <point x="214" y="391"/>
      <point x="207" y="377"/>
      <point x="208" y="320" type="curve"/>
      <point x="286" y="387"/>
      <point x="332" y="414"/>
      <point x="390" y="414" type="curve" smooth="yes"/>
      <point x="433" y="414"/>
      <point x="464" y="399"/>
      <point x="489" y="364" type="curve"/>
      <point x="520" y="367"/>
      <point x="535" y="393"/>
      <point x="535" y="413" type="curve" smooth="yes"/>
      <point x="535" y="471"/>
      <point x="463" y="560"/>
    </contour>
    <contour>
      <point x="535" y="238" type="line"/>
      <point x="535" y="298"/>
      <point x="535" y="352"/>
      <point x="535" y="413" type="curve" smooth="yes"/>
      <point x="535" y="420"/>
      <point x="533" y="424"/>
      <point x="528" y="429" type="curve" smooth="yes"/>
      <point x="505" y="451"/>
      <point x="461" y="462"/>
      <point x="419" y="462" type="curve" smooth="yes"/>
      <point x="397" y="462" type="line"/>
      <point x="397" y="402"/>
      <point x="397" y="347"/>
      <point x="397" y="287" type="curve" smooth="yes"/>
      <point x="397" y="279"/>
      <point x="399" y="276"/>
      <point x="404" y="271" type="curve" smooth="yes"/>
      <point x="427" y="248"/>
      <point x="471" y="238"/>
      <point x="513" y="238" type="curve" smooth="yes"/>
    </contour>
    <contour>
      <point x="35" y="540" type="curve"/>
      <point x="35" y="518" type="line" smooth="yes"/>
      <point x="35" y="461"/>
      <point x="41" y="432"/>
      <point x="56" y="417" type="curve" smooth="yes"/>
      <point x="61" y="412"/>
      <point x="64" y="410"/>
      <point x="72" y="410" type="curve"/>
      <point x="109" y="410"/>
      <point x="150" y="410"/>
      <point x="186" y="410" type="curve"/>
      <point x="186" y="432" type="line" smooth="yes"/>
      <point x="186" y="455"/>
      <point x="166" y="504"/>
      <point x="138" y="533" type="curve" smooth="yes"/>
      <point x="132" y="538"/>
      <point x="129" y="540"/>
      <point x="122" y="540" type="curve" smooth="yes"/>
      <point x="102" y="540"/>
      <point x="54" y="540"/>
    </contour>
    <contour>
      <point x="255" y="-10" type="line"/>
      <point x="255" y="123"/>
      <point x="255" y="256"/>
      <point x="255" y="389" type="curve"/>
      <point x="255" y="443"/>
      <point x="200" y="540"/>
      <point x="147" y="540" type="curve" smooth="yes"/>
      <point x="117" y="540" type="line"/>
      <point x="117" y="466"/>
      <point x="117" y="307"/>
      <point x="117" y="236" type="curve" smooth="yes"/>
      <point x="117" y="171"/>
      <point x="117" y="104"/>
      <point x="117" y="39" type="curve"/>
      <point x="117" y="31"/>
      <point x="119" y="28"/>
      <point x="124" y="23" type="curve" smooth="yes"/>
      <point x="147" y="0"/>
      <point x="191" y="-10"/>
      <point x="233" y="-10" type="curve" smooth="yes"/>
    </contour>
  </outline>
</glyph>
<glyph name="s" format="1">
  <advance width="600"/>
  <unicode hex="0073"/>
  <outline>
    <contour>
      <point x="373" y="560" type="curve" smooth="yes"/>
      <point x="226" y="560"/>
      <point x="82" y="478"/>
      <point x="82" y="379" type="curve" smooth="yes"/>
      <point x="82" y="353" type="line" smooth="yes"/>
      <point x="82" y="319"/>
      <point x="143" y="301"/>
      <point x="213" y="301" type="curve"/>
      <point x="212" y="317"/>
      <point x="212" y="347"/>
      <point x="212" y="367" type="curve" smooth="yes"/>
      <point x="212" y="402"/>
      <point x="284" y="430"/>
      <point x="366" y="430" type="curve" smooth="yes"/>
      <point x="424" y="430"/>
      <point x="464" y="418"/>
      <point x="494" y="402" type="curve"/>
      <point x="516" y="402" type="line"/>
      <point x="516" y="509" type="line" smooth="yes"/>
      <point x="516" y="536"/>
      <point x="460" y="560"/>
    </contour>
    <contour>
      <point x="393" y="307" type="curve" smooth="yes"/>
      <point x="299" y="327" type="line" smooth="yes"/>
      <point x="227" y="342"/>
      <point x="212" y="348"/>
      <point x="212" y="367" type="curve" smooth="yes"/>
      <point x="212" y="383"/>
      <point x="215" y="410"/>
      <point x="235" y="431" type="curve"/>
      <point x="140" y="428"/>
      <point x="82" y="397"/>
      <point x="82" y="353" type="curve"/>
      <point x="82" y="298"/>
      <point x="128" y="256"/>
      <point x="237" y="232" type="curve" smooth="yes"/>
      <point x="349" y="207" type="line" smooth="yes"/>
      <point x="432" y="188"/>
      <point x="453" y="162"/>
      <point x="470" y="106" type="curve"/>
      <point x="512" y="106"/>
      <point x="541" y="138"/>
      <point x="541" y="169" type="curve"/>
      <point x="541" y="245"/>
      <point x="497" y="286"/>
    </contour>
    <contour>
      <point x="309" y="-20" type="line" smooth="yes"/>
      <point x="457" y="-20"/>
      <point x="541" y="35"/>
      <point x="541" y="125" type="curve" smooth="yes"/>
      <point x="541" y="169" type="line"/>
      <point x="541" y="194"/>
      <point x="510" y="198"/>
      <point x="467" y="180" type="curve"/>
      <point x="453" y="133"/>
      <point x="408" y="110"/>
      <point x="300" y="110" type="curve" smooth="yes"/>
      <point x="187" y="110"/>
      <point x="137" y="118"/>
      <point x="80" y="158" type="curve"/>
      <point x="57" y="158" type="line"/>
      <point x="57" y="122"/>
      <point x="57" y="86"/>
      <point x="57" y="50" type="curve"/>
      <point x="57" y="13"/>
      <point x="130" y="-20"/>
      <point x="274" y="-20" type="curve" smooth="yes"/>
    </contour>
  </outline>
</glyph>
<glyph name="t" format="1">
  <advance width="600"/>
  <unicode hex="0074"/>
  <outline>
    <contour>
      <point x="542" y="170" type="line"/>
      <point x="525" y="170" type="line"/>
      <point x="484" y="122"/>
      <point x="430" y="100"/>
      <point x="357" y="100" type="curve" smooth="yes"/>
      <point x="304" y="100"/>
      <point x="261" y="103"/>
      <point x="222" y="117" type="curve"/>
      <point x="200" y="99"/>
      <point x="209" y="60"/>
      <point x="236" y="34" type="curve" smooth="yes"/>
      <point x="277" y="-8"/>
      <point x="297" y="-20"/>
      <point x="335" y="-20" type="curve" smooth="yes"/>
      <point x="346" y="-20"/>
      <point x="359" y="-20"/>
      <point x="369" y="-20" type="curve" smooth="yes"/>
      <point x="431" y="-20"/>
      <point x="487" y="1"/>
      <point x="519" y="32" type="curve" smooth="yes"/>
      <point x="534" y="47"/>
      <point x="542" y="67"/>
      <point x="542" y="95" type="curve"/>
    </contour>
    <contour>
      <point x="33" y="535" type="curve"/>
      <point x="33" y="487" type="line" smooth="yes"/>
      <point x="33" y="462"/>
      <point x="40" y="437"/>
      <point x="55" y="422" type="curve" smooth="yes"/>
      <point x="61" y="417"/>
      <point x="64" y="415"/>
      <point x="71" y="415" type="curve"/>
      <point x="132" y="415"/>
      <point x="201" y="415"/>
      <point x="262" y="415" type="curve"/>
      <point x="344" y="415"/>
      <point x="461" y="415"/>
      <point x="543" y="415" type="curve"/>
      <point x="543" y="436" type="line" smooth="yes"/>
      <point x="543" y="474"/>
      <point x="533" y="507"/>
      <point x="513" y="528" type="curve" smooth="yes"/>
      <point x="508" y="533"/>
      <point x="504" y="535"/>
      <point x="497" y="535" type="curve" smooth="yes"/>
      <point x="355" y="535"/>
      <point x="175" y="535"/>
    </contour>
    <contour>
      <point x="295" y="670" type="curve" smooth="yes"/>
      <point x="275" y="691"/>
      <point x="241" y="700"/>
      <point x="203" y="700" type="curve" smooth="yes"/>
      <point x="183" y="700" type="line"/>
      <point x="183" y="146" type="line" smooth="yes"/>
      <point x="183" y="99"/>
      <point x="195" y="74"/>
      <point x="236" y="34" type="curve"/>
      <point x="264" y="6"/>
      <point x="298" y="5"/>
      <point x="310" y="23" type="curve"/>
      <point x="305" y="64"/>
      <point x="303" y="108"/>
      <point x="303" y="157" type="curve" smooth="yes"/>
      <point x="303" y="655" type="line" smooth="yes"/>
      <point x="303" y="662"/>
      <point x="301" y="665"/>
    </contour>
  </outline>
</glyph>
<glyph name="u" format="1">
  <advance width="600"/>
  <unicode hex="0075"/>
  <outline>
    <contour>
      <point x="388" y="550" type="line"/>
      <point x="388" y="377"/>
      <point x="388" y="204"/>
      <point x="388" y="31" type="curve" smooth="yes"/>
      <point x="388" y="23"/>
      <point x="390" y="20"/>
      <point x="395" y="15" type="curve" smooth="yes"/>
      <point x="408" y="2"/>
      <point x="462" y="-10"/>
      <point x="504" y="-10" type="curve" smooth="yes"/>
      <point x="526" y="-10" type="line"/>
      <point x="526" y="107"/>
      <point x="526" y="226"/>
      <point x="526" y="343" type="curve" smooth="yes"/>
      <point x="526" y="395"/>
      <point x="526" y="449"/>
      <point x="526" y="501" type="curve" smooth="yes"/>
      <point x="526" y="509"/>
      <point x="524" y="512"/>
      <point x="519" y="517" type="curve" smooth="yes"/>
      <point x="496" y="540"/>
      <point x="452" y="550"/>
      <point x="410" y="550" type="curve" smooth="yes"/>
    </contour>
    <contour>
      <point x="211" y="-12" type="curve" smooth="yes"/>
      <point x="268" y="-12"/>
      <point x="357" y="59"/>
      <point x="404" y="116" type="curve" smooth="yes"/>
      <point x="431" y="148"/>
      <point x="436" y="163"/>
      <point x="435" y="220" type="curve"/>
      <point x="348" y="147"/>
      <point x="291" y="126"/>
      <point x="221" y="126" type="curve" smooth="yes"/>
      <point x="175" y="126"/>
      <point x="146" y="141"/>
      <point x="121" y="176" type="curve"/>
      <point x="88" y="176"/>
      <point x="74" y="148"/>
      <point x="74" y="126" type="curve" smooth="yes"/>
      <point x="74" y="72"/>
      <point x="145" y="-12"/>
    </contour>
    <contour>
      <point x="74" y="550" type="line"/>
      <point x="74" y="402"/>
      <point x="74" y="274"/>
      <point x="74" y="126" type="curve" smooth="yes"/>
      <point x="74" y="119"/>
      <point x="76" y="116"/>
      <point x="81" y="110" type="curve" smooth="yes"/>
      <point x="104" y="88"/>
      <point x="148" y="78"/>
      <point x="190" y="78" type="curve" smooth="yes"/>
      <point x="212" y="78" type="line"/>
      <point x="212" y="172"/>
      <point x="212" y="248"/>
      <point x="212" y="343" type="curve" smooth="yes"/>
      <point x="212" y="395"/>
      <point x="212" y="449"/>
      <point x="212" y="501" type="curve" smooth="yes"/>
      <point x="212" y="509"/>
      <point x="210" y="512"/>
      <point x="205" y="517" type="curve" smooth="yes"/>
      <point x="182" y="540"/>
      <point x="138" y="550"/>
      <point x="96" y="550" type="curve" smooth="yes"/>
    </contour>
  </outline>
</glyph>
<glyph name="v" format="1">
  <advance width="600"/>
  <unicode hex="0076"/>
  <outline>
    <contour>
      <point x="545" y="506" type="curve" smooth="yes"/>
      <point x="523" y="528"/>
      <point x="486" y="545"/>
      <point x="448" y="545" type="curve" smooth="yes"/>
      <point x="428" y="545" type="line"/>
      <point x="404" y="277"/>
      <point x="365" y="172"/>
      <point x="260" y="85" type="curve" smooth="yes"/>
      <point x="238" y="66"/>
      <point x="255" y="-10"/>
      <point x="305" y="-10" type="curve"/>
      <point x="343" y="-10" type="line"/>
      <point x="456" y="83"/>
      <point x="529" y="254"/>
      <point x="550" y="485" type="curve" smooth="yes"/>
      <point x="551" y="494"/>
      <point x="550" y="501"/>
    </contour>
    <contour>
      <point x="168" y="520" type="curve" smooth="yes"/>
      <point x="151" y="537"/>
      <point x="104" y="545"/>
      <point x="65" y="545" type="curve" smooth="yes"/>
      <point x="46" y="545" type="line"/>
      <point x="67" y="286"/>
      <point x="106" y="141"/>
      <point x="198" y="47" type="curve" smooth="yes"/>
      <point x="246" y="-1"/>
      <point x="277" y="-10"/>
      <point x="305" y="-10" type="curve"/>
      <point x="338" y="-10"/>
      <point x="357" y="4"/>
      <point x="357" y="54" type="curve"/>
      <point x="245" y="130"/>
      <point x="198" y="242"/>
      <point x="176" y="504" type="curve" smooth="yes"/>
      <point x="175" y="512"/>
      <point x="173" y="515"/>
    </contour>
  </outline>
</glyph>
<glyph name="w" format="1">
  <advance width="900"/>
  <unicode hex="0077"/>
  <outline>
    <contour>
      <point x="176" y="523" type="curve" smooth="yes"/>
      <point x="158" y="541"/>
      <point x="106" y="550"/>
      <point x="64" y="550" type="curve" smooth="yes"/>
      <point x="43" y="550" type="line"/>
      <point x="64" y="293"/>
      <point x="85" y="139"/>
      <point x="171" y="52" type="curve" smooth="yes"/>
      <point x="224" y="-1"/>
      <point x="257" y="-10"/>
      <point x="287" y="-10" type="curve"/>
      <point x="322" y="-10"/>
      <point x="343" y="3"/>
      <point x="343" y="59" type="curve"/>
      <point x="239" y="127"/>
      <point x="207" y="243"/>
      <point x="185" y="504" type="curve" smooth="yes"/>
      <point x="184" y="514"/>
      <point x="182" y="517"/>
    </contour>
    <contour>
      <point x="486" y="405" type="curve" smooth="yes"/>
      <point x="468" y="424"/>
      <point x="442" y="440"/>
      <point x="414" y="440" type="curve" smooth="yes"/>
      <point x="392" y="440" type="line"/>
      <point x="371" y="236"/>
      <point x="333" y="159"/>
      <point x="251" y="86" type="curve"/>
      <point x="232" y="70"/>
      <point x="250" y="-10"/>
      <point x="287" y="-10" type="curve"/>
      <point x="325" y="-10" type="line"/>
      <point x="410" y="65"/>
      <point x="472" y="205"/>
      <point x="492" y="383" type="curve"/>
      <point x="493" y="392"/>
      <point x="492" y="400"/>
    </contour>
    <contour>
      <point x="495" y="491" type="curve" smooth="yes"/>
      <point x="478" y="509"/>
      <point x="430" y="518"/>
      <point x="391" y="518" type="curve" smooth="yes"/>
      <point x="370" y="518" type="line"/>
      <point x="390" y="274"/>
      <point x="429" y="130"/>
      <point x="509" y="50" type="curve" smooth="yes"/>
      <point x="561" y="-2"/>
      <point x="593" y="-10"/>
      <point x="623" y="-10" type="curve"/>
      <point x="646" y="-10"/>
      <point x="660" y="4"/>
      <point x="660" y="59" type="curve"/>
      <point x="563" y="125"/>
      <point x="525" y="229"/>
      <point x="504" y="472" type="curve" smooth="yes"/>
      <point x="503" y="482"/>
      <point x="501" y="485"/>
    </contour>
    <contour>
      <point x="847" y="508" type="curve" smooth="yes"/>
      <point x="822" y="533"/>
      <point x="783" y="550"/>
      <point x="741" y="550" type="curve" smooth="yes"/>
      <point x="720" y="550" type="line"/>
      <point x="695" y="285"/>
      <point x="667" y="173"/>
      <point x="571" y="95" type="curve"/>
      <point x="548" y="75"/>
      <point x="572" y="-10"/>
      <point x="623" y="-10" type="curve"/>
      <point x="661" y="-10" type="line"/>
      <point x="767" y="77"/>
      <point x="831" y="259"/>
      <point x="853" y="485" type="curve" smooth="yes"/>
      <point x="854" y="495"/>
      <point x="852" y="502"/>
    </contour>
  </outline>
</glyph>
<glyph name="x" format="1">
  <advance width="600"/>
  <unicode hex="0078"/>
  <outline>
    <contour>
      <point x="506" y="-10" type="curve" smooth="yes"/>
      <point x="546" y="-10"/>
      <point x="562" y="6"/>
      <point x="562" y="47" type="curve"/>
      <point x="562" y="128" type="line"/>
      <point x="485" y="147"/>
      <point x="435" y="178"/>
      <point x="365" y="248" type="curve" smooth="yes"/>
      <point x="303" y="310"/>
      <point x="254" y="385"/>
      <point x="199" y="505" type="curve" smooth="yes"/>
      <point x="196" y="514"/>
      <point x="193" y="518"/>
      <point x="188" y="523" type="curve" smooth="yes"/>
      <point x="170" y="541"/>
      <point x="130" y="550"/>
      <point x="70" y="550" type="curve" smooth="yes"/>
      <point x="47" y="550" type="line"/>
      <point x="87" y="401"/>
      <point x="166" y="263"/>
      <point x="281" y="145" type="curve" smooth="yes"/>
      <point x="381" y="45"/>
      <point x="460" y="-10"/>
    </contour>
    <contour>
      <point x="551" y="515" type="curve" smooth="yes"/>
      <point x="527" y="539"/>
      <point x="484" y="550"/>
      <point x="445" y="550" type="curve" smooth="yes"/>
      <point x="424" y="550" type="line"/>
      <point x="383" y="402"/>
      <point x="356" y="349"/>
      <point x="290" y="296" type="curve"/>
      <point x="252" y="262"/>
      <point x="286" y="211"/>
      <point x="347" y="211" type="curve"/>
      <point x="468" y="311"/>
      <point x="528" y="396"/>
      <point x="556" y="489" type="curve" smooth="yes"/>
      <point x="560" y="502"/>
      <point x="558" y="509"/>
    </contour>
    <contour>
      <point x="44" y="25" type="curve" smooth="yes"/>
      <point x="68" y="1"/>
      <point x="110" y="-10"/>
      <point x="149" y="-10" type="curve" smooth="yes"/>
      <point x="170" y="-10" type="line"/>
      <point x="194" y="82"/>
      <point x="229" y="147"/>
      <point x="292" y="197" type="curve"/>
      <point x="319" y="223"/>
      <point x="300" y="277"/>
      <point x="246" y="277" type="curve"/>
      <point x="113" y="187"/>
      <point x="54" y="109"/>
      <point x="40" y="51" type="curve" smooth="yes"/>
      <point x="36" y="38"/>
      <point x="38" y="31"/>
    </contour>
  </outline>
</glyph>
<glyph name="y" format="1">
  <advance width="600"/>
  <unicode hex="0079"/>
  <outline>
    <contour>
      <point x="178" y="523" type="curve" smooth="yes"/>
      <point x="160" y="541"/>
      <point x="108" y="550"/>
      <point x="66" y="550" type="curve" smooth="yes"/>
      <point x="45" y="550" type="line"/>
      <point x="57" y="405" type="line" smooth="yes"/>
      <point x="67" y="289"/>
      <point x="100" y="169"/>
      <point x="189" y="80" type="curve" smooth="yes"/>
      <point x="251" y="18"/>
      <point x="295" y="8"/>
      <point x="330" y="8" type="curve"/>
      <point x="356" y="8"/>
      <point x="374" y="30"/>
      <point x="374" y="113" type="curve"/>
      <point x="342" y="124"/>
      <point x="314" y="138"/>
      <point x="289" y="162" type="curve" smooth="yes"/>
      <point x="234" y="217"/>
      <point x="205" y="283"/>
      <point x="196" y="398" type="curve" smooth="yes"/>
      <point x="187" y="505" type="line" smooth="yes"/>
      <point x="186" y="514"/>
      <point x="184" y="517"/>
    </contour>
    <contour>
      <point x="545" y="507" type="curve" smooth="yes"/>
      <point x="520" y="532"/>
      <point x="481" y="550"/>
      <point x="439" y="550" type="curve" smooth="yes"/>
      <point x="418" y="550" type="line"/>
      <point x="407" y="435" type="line" smooth="yes"/>
      <point x="382" y="167"/>
      <point x="348" y="41"/>
      <point x="235" y="-73" type="curve" smooth="yes"/>
      <point x="210" y="-97"/>
      <point x="183" y="-121"/>
      <point x="118" y="-167" type="curve"/>
      <point x="118" y="-213"/>
      <point x="138" y="-250"/>
      <point x="176" y="-250" type="curve" smooth="yes"/>
      <point x="213" y="-250"/>
      <point x="258" y="-239"/>
      <point x="300" y="-198" type="curve" smooth="yes"/>
      <point x="437" y="-62"/>
      <point x="516" y="119"/>
      <point x="541" y="385" type="curve" smooth="yes"/>
      <point x="550" y="484" type="line" smooth="yes"/>
      <point x="551" y="494"/>
      <point x="550" y="502"/>
    </contour>
    <contour>
      <point x="64" y="-120" type="curve"/>
      <point x="64" y="-142" type="line" smooth="yes"/>
      <point x="64" y="-184"/>
      <point x="74" y="-220"/>
      <point x="97" y="-243" type="curve" smooth="yes"/>
      <point x="102" y="-248"/>
      <point x="105" y="-250"/>
      <point x="113" y="-250" type="curve"/>
      <point x="135" y="-250"/>
      <point x="154" y="-250"/>
      <point x="176" y="-250" type="curve" smooth="yes"/>
      <point x="232" y="-250"/>
      <point x="280" y="-180"/>
      <point x="282" y="-120" type="curve"/>
      <point x="227" y="-120"/>
      <point x="118" y="-120"/>
    </contour>
  </outline>
</glyph>
<glyph name="z" format="1">
  <advance width="600"/>
  <unicode hex="007A"/>
  <outline>
    <contour>
      <point x="58" y="540" type="curve"/>
      <point x="58" y="518" type="line" smooth="yes"/>
      <point x="58" y="476"/>
      <point x="68" y="440"/>
      <point x="91" y="417" type="curve" smooth="yes"/>
      <point x="96" y="412"/>
      <point x="99" y="410"/>
      <point x="107" y="410" type="curve"/>
      <point x="157" y="410"/>
      <point x="203" y="410"/>
      <point x="253" y="410" type="curve" smooth="yes"/>
      <point x="336" y="410"/>
      <point x="459" y="410"/>
      <point x="542" y="410" type="curve"/>
      <point x="542" y="455"/>
      <point x="522" y="504"/>
      <point x="493" y="533" type="curve" smooth="yes"/>
      <point x="488" y="538"/>
      <point x="485" y="540"/>
      <point x="477" y="540" type="curve" smooth="yes"/>
      <point x="348" y="540"/>
      <point x="188" y="540"/>
    </contour>
    <contour>
      <point x="538" y="423" type="curve" smooth="yes"/>
      <point x="506" y="455"/>
      <point x="487" y="477"/>
      <point x="437" y="477" type="curve"/>
      <point x="348" y="347"/>
      <point x="206" y="219"/>
      <point x="58" y="130" type="curve"/>
      <point x="58" y="92"/>
      <point x="82" y="76"/>
      <point x="103" y="76" type="curve" smooth="yes"/>
      <point x="135" y="76"/>
      <point x="150" y="80"/>
      <point x="179" y="93" type="curve" smooth="yes"/>
      <point x="349" y="174"/>
      <point x="542" y="364"/>
      <point x="542" y="410" type="curve" smooth="yes"/>
      <point x="542" y="416"/>
      <point x="541" y="420"/>
    </contour>
    <contour>
      <point x="542" y="0" type="curve"/>
      <point x="542" y="22" type="line" smooth="yes"/>
      <point x="542" y="45"/>
      <point x="522" y="94"/>
      <point x="493" y="123" type="curve" smooth="yes"/>
      <point x="488" y="128"/>
      <point x="485" y="130"/>
      <point x="477" y="130" type="curve" smooth="yes"/>
      <point x="348" y="130"/>
      <point x="188" y="130"/>
      <point x="58" y="130" type="curve"/>
      <point x="58" y="108" type="line" smooth="yes"/>
      <point x="58" y="66"/>
      <point x="68" y="30"/>
      <point x="91" y="7" type="curve" smooth="yes"/>
      <point x="96" y="2"/>
      <point x="99" y="0"/>
      <point x="107" y="0" type="curve"/>
      <point x="157" y="0"/>
      <point x="203" y="0"/>
      <point x="253" y="0" type="curve" smooth="yes"/>
      <point x="336" y="0"/>
      <point x="459" y="0"/>
    </contour>
  </outline>
</glyph>
<glyph name="f.ss01" format="1">
  <advance width="600"/>
  <outline>
    <contour>
      <point x="225" y="617" type="curve"/>
      <point x="277" y="647"/>
      <point x="337" y="652"/>
      <point x="400" y="652" type="curve" smooth="yes"/>
      <point x="464" y="652"/>
      <point x="519" y="639"/>
      <point x="548" y="625" type="curve"/>
      <point x="570" y="625" type="line"/>
      <point x="570" y="648" type="line"/>
      <point x="570" y="690"/>
      <point x="559" y="726"/>
      <point x="546" y="742" type="curve" smooth="yes"/>
      <point x="533" y="756"/>
      <point x="493" y="770"/>
      <point x="457" y="770" type="curve"/>
      <point x="383" y="770" type="line"/>
      <point x="319" y="770"/>
      <point x="271" y="759"/>
      <point x="220" y="708" type="curve" smooth="yes"/>
      <point x="195" y="683"/>
      <point x="193" y="640"/>
    </contour>
    <contour>
      <point x="290" y="23" type="line"/>
      <point x="290" y="217"/>
      <point x="290" y="354"/>
      <point x="290" y="540" type="curve" smooth="yes"/>
      <point x="290" y="580"/>
      <point x="273" y="672"/>
      <point x="283" y="727" type="curve"/>
      <point x="258" y="740"/>
      <point x="243" y="730"/>
      <point x="220" y="708" type="curve" smooth="yes"/>
      <point x="176" y="664"/>
      <point x="160" y="632"/>
      <point x="160" y="584" type="curve"/>
      <point x="160" y="448"/>
      <point x="160" y="260"/>
      <point x="160" y="71" type="curve"/>
      <point x="160" y="64"/>
      <point x="162" y="61"/>
      <point x="167" y="55" type="curve" smooth="yes"/>
      <point x="190" y="33"/>
      <point x="226" y="23"/>
      <point x="268" y="23" type="curve" smooth="yes"/>
    </contour>
    <contour>
      <point x="30" y="540" type="curve"/>
      <point x="30" y="518" type="line" smooth="yes"/>
      <point x="30" y="474"/>
      <point x="41" y="439"/>
      <point x="63" y="417" type="curve" smooth="yes"/>
      <point x="69" y="411"/>
      <point x="72" y="410"/>
      <point x="79" y="410" type="curve"/>
      <point x="126" y="410"/>
      <point x="186" y="410"/>
      <point x="233" y="410" type="curve"/>
      <point x="274" y="410"/>
      <point x="489" y="410"/>
      <point x="520" y="410" type="curve"/>
      <point x="520" y="432" type="line" smooth="yes"/>
      <point x="520" y="477"/>
      <point x="509" y="511"/>
      <point x="487" y="533" type="curve" smooth="yes"/>
      <point x="481" y="539"/>
      <point x="478" y="540"/>
      <point x="471" y="540" type="curve" smooth="yes"/>
      <point x="393" y="540"/>
      <point x="109" y="540"/>
    </contour>
    <contour>
      <point x="50" y="130" type="curve"/>
      <point x="50" y="108" type="line" smooth="yes"/>
      <point x="50" y="64"/>
      <point x="61" y="29"/>
      <point x="83" y="7" type="curve" smooth="yes"/>
      <point x="89" y="1"/>
      <point x="92" y="0"/>
      <point x="99" y="0" type="curve"/>
      <point x="150" y="0"/>
      <point x="202" y="0"/>
      <point x="253" y="0" type="curve"/>
      <point x="342" y="0"/>
      <point x="411" y="0"/>
      <point x="500" y="0" type="curve"/>
      <point x="500" y="22" type="line" smooth="yes"/>
      <point x="500" y="49"/>
      <point x="476" y="98"/>
      <point x="451" y="123" type="curve" smooth="yes"/>
      <point x="445" y="129"/>
      <point x="442" y="130"/>
      <point x="435" y="130" type="curve" smooth="yes"/>
      <point x="299" y="130"/>
      <point x="187" y="130"/>
    </contour>
  </outline>
</glyph>
<glyph name="g.ver02" format="1">
  <advance width="600"/>
  <outline>
    <contour>
      <point x="323" y="447" type="curve" smooth="yes"/>
      <point x="372" y="447"/>
      <point x="414" y="437"/>
      <point x="446" y="423" type="curve"/>
      <point x="480" y="472"/>
      <point x="480" y="506"/>
      <point x="460" y="526" type="curve" smooth="yes"/>
      <point x="438" y="548"/>
      <point x="376" y="560"/>
      <point x="315" y="560" type="curve" smooth="yes"/>
      <point x="165" y="560"/>
      <point x="64" y="494"/>
      <point x="64" y="374" type="curve" smooth="yes"/>
      <point x="64" y="320" type="line" smooth="yes"/>
      <point x="64" y="279"/>
      <point x="78" y="254"/>
      <point x="134" y="199" type="curve" smooth="yes"/>
      <point x="151" y="181"/>
      <point x="196" y="190"/>
      <point x="211" y="207" type="curve"/>
      <point x="194" y="232"/>
      <point x="191" y="246"/>
      <point x="191" y="278" type="curve" smooth="yes"/>
      <point x="191" y="342" type="line" smooth="yes"/>
      <point x="191" y="421"/>
      <point x="233" y="447"/>
    </contour>
    <contour>
      <point x="297" y="259" type="curve" smooth="yes"/>
      <point x="239" y="259"/>
      <point x="158" y="264"/>
      <point x="114" y="284" type="curve"/>
      <point x="102" y="254"/>
      <point x="109" y="224"/>
      <point x="134" y="199" type="curve" smooth="yes"/>
      <point x="183" y="148"/>
      <point x="238" y="145"/>
      <point x="309" y="145" type="curve" smooth="yes"/>
      <point x="458" y="145"/>
      <point x="536" y="214"/>
      <point x="536" y="327" type="curve" smooth="yes"/>
      <point x="536" y="381" type="line" smooth="yes"/>
      <point x="536" y="428"/>
      <point x="525" y="461"/>
      <point x="460" y="526" type="curve" smooth="yes"/>
      <point x="440" y="546"/>
      <point x="388" y="537"/>
      <point x="367" y="516" type="curve"/>
      <point x="396" y="493"/>
      <point x="414" y="473"/>
      <point x="414" y="426" type="curve" smooth="yes"/>
      <point x="414" y="350" type="line" smooth="yes"/>
      <point x="414" y="292"/>
      <point x="368" y="259"/>
    </contour>
    <contour>
      <point x="90" y="54" type="curve" smooth="yes"/>
      <point x="90" y="41" type="line" smooth="yes"/>
      <point x="90" y="-17"/>
      <point x="143" y="-53"/>
      <point x="227" y="-53" type="curve" smooth="yes"/>
      <point x="418" y="-53" type="line" smooth="yes"/>
      <point x="432" y="-53"/>
      <point x="442" y="-63"/>
      <point x="442" y="-78" type="curve" smooth="yes"/>
      <point x="442" y="-121" type="line" smooth="yes"/>
      <point x="442" y="-153"/>
      <point x="440" y="-177"/>
      <point x="435" y="-203" type="curve"/>
      <point x="454" y="-205"/>
      <point x="507" y="-193"/>
      <point x="520" y="-180" type="curve" smooth="yes"/>
      <point x="557" y="-144"/>
      <point x="570" y="-115"/>
      <point x="570" y="-70" type="curve" smooth="yes"/>
      <point x="570" y="-35" type="line" smooth="yes"/>
      <point x="570" y="22"/>
      <point x="523" y="65"/>
      <point x="463" y="65" type="curve" smooth="yes"/>
      <point x="241" y="65" type="line" smooth="yes"/>
      <point x="225" y="65"/>
      <point x="220" y="70"/>
      <point x="220" y="86" type="curve" smooth="yes"/>
      <point x="220" y="117" type="line" smooth="yes"/>
      <point x="220" y="133"/>
      <point x="224" y="151"/>
      <point x="227" y="166" type="curve"/>
      <point x="227" y="173"/>
      <point x="226" y="179"/>
      <point x="224" y="183" type="curve" smooth="yes"/>
      <point x="177" y="183"/>
      <point x="90" y="110"/>
    </contour>
    <contour>
      <point x="545" y="-99" type="curve"/>
      <point x="465" y="-155"/>
      <point x="411" y="-160"/>
      <point x="333" y="-160" type="curve"/>
      <point x="258" y="-160" type="line"/>
      <point x="198" y="-160"/>
      <point x="173" y="-140"/>
      <point x="173" y="-93" type="curve" smooth="yes"/>
      <point x="173" y="-84" type="line" smooth="yes"/>
      <point x="173" y="-65"/>
      <point x="184" y="-44"/>
      <point x="204" y="-34" type="curve"/>
      <point x="204" y="-26"/>
      <point x="198" y="-19"/>
      <point x="190" y="-19" type="curve"/>
      <point x="107" y="-19"/>
      <point x="55" y="-66"/>
      <point x="55" y="-129" type="curve" smooth="yes"/>
      <point x="55" y="-139" type="line" smooth="yes"/>
      <point x="55" y="-203"/>
      <point x="121" y="-250"/>
      <point x="213" y="-250" type="curve"/>
      <point x="282" y="-250" type="line"/>
      <point x="384" y="-250"/>
      <point x="467" y="-233"/>
      <point x="520" y="-180" type="curve"/>
      <point x="550" y="-151"/>
      <point x="560" y="-115"/>
    </contour>
    <contour>
      <point x="449" y="505" type="curve" smooth="yes"/>
      <point x="529" y="567" type="line" smooth="yes"/>
      <point x="555" y="588"/>
      <point x="570" y="606"/>
      <point x="570" y="632" type="curve" smooth="yes"/>
      <point x="570" y="638"/>
      <point x="570" y="648"/>
      <point x="570" y="656" type="curve" smooth="yes"/>
      <point x="570" y="664"/>
      <point x="568" y="667"/>
      <point x="563" y="672" type="curve" smooth="yes"/>
      <point x="540" y="695"/>
      <point x="496" y="705"/>
      <point x="454" y="705" type="curve" smooth="yes"/>
      <point x="440" y="705" type="line"/>
      <point x="440" y="693"/>
      <point x="440" y="680"/>
      <point x="440" y="668" type="curve" smooth="yes"/>
      <point x="440" y="649"/>
      <point x="437" y="636"/>
      <point x="433" y="619" type="curve" smooth="yes"/>
      <point x="405" y="513" type="line"/>
      <point x="417" y="503"/>
      <point x="438" y="498"/>
    </contour>
  </outline>
</glyph>
<glyph name="s.alt1" format="1">
  <advance width="600"/>
  <outline>
    <contour>
      <point x="395" y="272" type="curve" smooth="yes"/>
      <point x="301" y="292" type="line" smooth="yes"/>
      <point x="226" y="307"/>
      <point x="210" y="319"/>
      <point x="210" y="341" type="curve" smooth="yes"/>
      <point x="210" y="357"/>
      <point x="215" y="389"/>
      <point x="222" y="411" type="curve"/>
      <point x="140" y="411"/>
      <point x="80" y="374"/>
      <point x="80" y="333" type="curve"/>
      <point x="80" y="280"/>
      <point x="141" y="240"/>
      <point x="259" y="213" type="curve" smooth="yes"/>
      <point x="351" y="193" type="line" smooth="yes"/>
      <point x="433" y="175"/>
      <point x="461" y="160"/>
      <point x="499" y="115" type="curve"/>
      <point x="526" y="115"/>
      <point x="545" y="126"/>
      <point x="545" y="156" type="curve"/>
      <point x="545" y="214"/>
      <point x="499" y="251"/>
    </contour>
    <contour>
      <point x="300" y="-20" type="curve" smooth="yes"/>
      <point x="442" y="-20"/>
      <point x="545" y="32"/>
      <point x="545" y="103" type="curve" smooth="yes"/>
      <point x="545" y="156" type="line"/>
      <point x="545" y="182"/>
      <point x="522" y="200"/>
      <point x="498" y="197" type="curve"/>
      <point x="457" y="142"/>
      <point x="395" y="110"/>
      <point x="300" y="110" type="curve" smooth="yes"/>
      <point x="199" y="110"/>
      <point x="159" y="120"/>
      <point x="98" y="160" type="curve"/>
      <point x="55" y="160" type="line"/>
      <point x="55" y="132"/>
      <point x="55" y="102"/>
      <point x="55" y="74" type="curve"/>
      <point x="54" y="15"/>
      <point x="145" y="-20"/>
    </contour>
    <contour>
      <point x="380" y="560" type="curve" smooth="yes"/>
      <point x="238" y="560"/>
      <point x="80" y="464"/>
      <point x="80" y="378" type="curve" smooth="yes"/>
      <point x="80" y="333" type="line" smooth="yes"/>
      <point x="80" y="297"/>
      <point x="141" y="275"/>
      <point x="213" y="275" type="curve"/>
      <point x="211" y="291"/>
      <point x="210" y="322"/>
      <point x="210" y="341" type="curve" smooth="yes"/>
      <point x="210" y="379"/>
      <point x="304" y="430"/>
      <point x="380" y="430" type="curve" smooth="yes"/>
      <point x="399" y="430"/>
      <point x="420" y="424"/>
      <point x="448" y="410" type="curve"/>
      <point x="496" y="458"/>
      <point x="496" y="503"/>
      <point x="478" y="521" type="curve"/>
      <point x="452" y="547"/>
      <point x="419" y="560"/>
    </contour>
    <contour>
      <point x="520" y="420" type="curve"/>
      <point x="520" y="459"/>
      <point x="505" y="494"/>
      <point x="478" y="521" type="curve"/>
      <point x="456" y="543"/>
      <point x="406" y="531"/>
      <point x="371" y="497" type="curve"/>
      <point x="381" y="479"/>
      <point x="390" y="445"/>
      <point x="390" y="431" type="curve"/>
      <point x="390" y="424"/>
      <point x="390" y="418"/>
      <point x="390" y="412" type="curve"/>
      <point x="390" y="369"/>
      <point x="417" y="350"/>
      <point x="478" y="350" type="curve" smooth="yes"/>
      <point x="520" y="350" type="line"/>
      <point x="520" y="375"/>
      <point x="520" y="398"/>
    </contour>
  </outline>
</glyph>
